<svg width="56" height="59" viewBox="0 0 56 59" fill="none" xmlns="http://www.w3.org/2000/svg">
<g filter="url(#filter0_d)">
<g filter="url(#filter1_d)">
<circle cx="27" cy="28" r="24" stroke="white" stroke-width="2"/>
<circle cx="27" cy="28" r="24" stroke="url(#paint0_linear)" stroke-width="2"/>
</g>
</g>
<g filter="url(#filter2_d)">
<path fill-rule="evenodd" clip-rule="evenodd" d="M32.6668 25.5833V22C32.6668 20.0211 31.05 18.4166 29.0557 18.4166H21.8335V36.3333H25.4446V29.1666H26.3474L29.0557 32.75V36.3333H32.6668V32.75L29.8865 29.0713C31.4803 28.6989 32.6668 27.2785 32.6668 25.5833ZM29.0557 22H25.4446V25.5833H29.0557V22Z" fill="white"/>
<path fill-rule="evenodd" clip-rule="evenodd" d="M32.6668 25.5833V22C32.6668 20.0211 31.05 18.4166 29.0557 18.4166H21.8335V36.3333H25.4446V29.1666H26.3474L29.0557 32.75V36.3333H32.6668V32.75L29.8865 29.0713C31.4803 28.6989 32.6668 27.2785 32.6668 25.5833ZM29.0557 22H25.4446V25.5833H29.0557V22Z" fill="url(#paint1_linear)"/>
</g>
<defs>
<filter id="filter0_d" x="0" y="3" width="54" height="56" filterUnits="userSpaceOnUse" color-interpolation-filters="sRGB">
<feFlood flood-opacity="0" result="BackgroundImageFix"/>
<feColorMatrix in="SourceAlpha" type="matrix" values="0 0 0 0 0 0 0 0 0 0 0 0 0 0 0 0 0 0 127 0"/>
<feOffset dy="4"/>
<feGaussianBlur stdDeviation="1"/>
<feColorMatrix type="matrix" values="0 0 0 0 0 0 0 0 0 0 0 0 0 0 0 0 0 0 0.25 0"/>
<feBlend mode="normal" in2="BackgroundImageFix" result="effect1_dropShadow"/>
<feBlend mode="normal" in="SourceGraphic" in2="effect1_dropShadow" result="shape"/>
</filter>
<filter id="filter1_d" x="0" y="0.5" width="56" height="56" filterUnits="userSpaceOnUse" color-interpolation-filters="sRGB">
<feFlood flood-opacity="0" result="BackgroundImageFix"/>
<feColorMatrix in="SourceAlpha" type="matrix" values="0 0 0 0 0 0 0 0 0 0 0 0 0 0 0 0 0 0 127 0"/>
<feOffset dx="1" dy="0.5"/>
<feGaussianBlur stdDeviation="1.5"/>
<feColorMatrix type="matrix" values="0 0 0 0 0.027451 0 0 0 0 0.811765 0 0 0 0 0.964706 0 0 0 1 0"/>
<feBlend mode="normal" in2="BackgroundImageFix" result="effect1_dropShadow"/>
<feBlend mode="normal" in="SourceGraphic" in2="effect1_dropShadow" result="shape"/>
</filter>
<filter id="filter2_d" x="20.8335" y="16.9166" width="14.8333" height="21.9167" filterUnits="userSpaceOnUse" color-interpolation-filters="sRGB">
<feFlood flood-opacity="0" result="BackgroundImageFix"/>
<feColorMatrix in="SourceAlpha" type="matrix" values="0 0 0 0 0 0 0 0 0 0 0 0 0 0 0 0 0 0 127 0"/>
<feOffset dx="1" dy="0.5"/>
<feGaussianBlur stdDeviation="1"/>
<feColorMatrix type="matrix" values="0 0 0 0 0.027451 0 0 0 0 0.811765 0 0 0 0 0.964706 0 0 0 1 0"/>
<feBlend mode="normal" in2="BackgroundImageFix" result="effect1_dropShadow"/>
<feBlend mode="normal" in="SourceGraphic" in2="effect1_dropShadow" result="shape"/>
</filter>
<linearGradient id="paint0_linear" x1="27" y1="3" x2="27" y2="53" gradientUnits="userSpaceOnUse">
<stop stop-color="#07CFF6"/>
<stop offset="0.501667" stop-color="#69E2FA" stop-opacity="0.604286"/>
<stop offset="1" stop-color="white" stop-opacity="0"/>
</linearGradient>
<linearGradient id="paint1_linear" x1="27.2502" y1="18.4166" x2="27.2502" y2="36.3333" gradientUnits="userSpaceOnUse">
<stop stop-color="#07CFF6"/>
<stop offset="1" stop-color="white" stop-opacity="0"/>
</linearGradient>
</defs>
</svg>
