<svg width="15" height="20" viewBox="0 0 15 20" fill="none" xmlns="http://www.w3.org/2000/svg">
<path d="M4.875 0C3.78135 0.00109529 2.73283 0.401076 1.9595 1.11218C1.18617 1.82329 0.751191 2.78745 0.75 3.7931C0.75 4.93655 1.305 5.96069 2.178 6.65655C1.52023 6.9808 0.970344 7.46294 0.586829 8.05167C0.203314 8.64041 0.000513324 9.31372 0 10C0 11.2828 0.699 12.4166 1.7625 13.1034C1.21888 13.4522 0.7748 13.9164 0.467964 14.4567C0.161129 14.997 0.000597856 15.5974 0 16.2069C0 18.2986 1.85025 20 4.125 20C6.39975 20 8.25 18.2986 8.25 16.2069V7.58621H10.875C13.1497 7.58621 15 5.88483 15 3.7931C15 1.70138 13.1497 0 10.875 0H4.875ZM4.875 1.37931H10.875C12.3225 1.37931 13.5 2.46207 13.5 3.7931C13.5 5.12414 12.3225 6.2069 10.875 6.2069H4.875C3.4275 6.2069 2.25 5.12414 2.25 3.7931C2.25 2.46207 3.4275 1.37931 4.875 1.37931ZM4.125 7.58621H6.75V12.4138H4.125C2.6775 12.4138 1.5 11.331 1.5 10C1.5 8.66897 2.6775 7.58621 4.125 7.58621ZM11.25 7.58621C10.4544 7.58621 9.69129 7.87685 9.12868 8.39419C8.56607 8.91153 8.25 9.6132 8.25 10.3448C8.25 11.0765 8.56607 11.7781 9.12868 12.2955C9.69129 12.8128 10.4544 13.1034 11.25 13.1034C12.0456 13.1034 12.8087 12.8128 13.3713 12.2955C13.9339 11.7781 14.25 11.0765 14.25 10.3448C14.25 9.6132 13.9339 8.91153 13.3713 8.39419C12.8087 7.87685 12.0456 7.58621 11.25 7.58621ZM4.125 13.7931H6.75V16.2069C6.75 17.5379 5.5725 18.6207 4.125 18.6207C2.6775 18.6207 1.5 17.5379 1.5 16.2069C1.5 14.8759 2.6775 13.7931 4.125 13.7931Z" fill="#07CFF6"/>
</svg>
