<svg width="25" height="25" viewBox="0 0 25 25" fill="none" xmlns="http://www.w3.org/2000/svg">
<path d="M17.552 0H7.44678C5.47227 0.0023204 3.57931 0.787807 2.18323 2.18412C0.787156 3.58043 0.00198841 5.47352 0 7.44803L0 17.5532C0.0023204 19.5277 0.787807 21.4207 2.18412 22.8168C3.58043 24.2128 5.47352 24.998 7.44803 25H17.5532C19.5277 24.9977 21.4207 24.2122 22.8168 22.8159C24.2128 21.4196 24.998 19.5265 25 17.552V7.44678C24.9977 5.47227 24.2122 3.57931 22.8159 2.18323C21.4196 0.787156 19.5265 0.00198841 17.552 0V0ZM22.4856 17.552C22.4856 18.1999 22.358 18.8414 22.11 19.44C21.8621 20.0386 21.4987 20.5824 21.0406 21.0406C20.5824 21.4987 20.0386 21.8621 19.44 22.11C18.8414 22.358 18.1999 22.4856 17.552 22.4856H7.44678C6.13852 22.4853 4.88395 21.9653 3.95899 21.0401C3.03402 20.1149 2.5144 18.8602 2.5144 17.552V7.44678C2.51473 6.13852 3.03467 4.88395 3.95987 3.95899C4.88507 3.03402 6.13977 2.5144 7.44803 2.5144H17.5532C18.8615 2.51473 20.116 3.03467 21.041 3.95987C21.966 4.88507 22.4856 6.13977 22.4856 7.44803V17.5532V17.552Z" fill="#07CFF6"/>
<path d="M12.4995 6.0343C10.7857 6.03695 9.143 6.71898 7.93134 7.93088C6.71967 9.14277 6.03796 10.7857 6.03564 12.4994C6.03763 14.2135 6.71937 15.8569 7.93134 17.0691C9.14331 18.2813 10.7866 18.9634 12.5007 18.9657C14.2151 18.9637 15.8587 18.2818 17.0709 17.0695C18.2831 15.8573 18.965 14.2137 18.967 12.4994C18.9644 10.7852 18.282 9.1421 17.0696 7.93036C15.8571 6.71863 14.2136 6.03721 12.4995 6.03555V6.0343ZM12.4995 16.4513C11.4517 16.4513 10.4468 16.0351 9.70592 15.2942C8.96502 14.5533 8.54879 13.5484 8.54879 12.5006C8.54879 11.4528 8.96502 10.448 9.70592 9.70708C10.4468 8.96618 11.4517 8.54995 12.4995 8.54995C13.5472 8.54995 14.5521 8.96618 15.293 9.70708C16.0339 10.448 16.4501 11.4528 16.4501 12.5006C16.4501 13.5484 16.0339 14.5533 15.293 15.2942C14.5521 16.0351 13.5472 16.4513 12.4995 16.4513Z" fill="#07CFF6"/>
<path d="M18.9782 7.6321C19.8336 7.6321 20.5271 6.93861 20.5271 6.08314C20.5271 5.22767 19.8336 4.53418 18.9782 4.53418C18.1227 4.53418 17.4292 5.22767 17.4292 6.08314C17.4292 6.93861 18.1227 7.6321 18.9782 7.6321Z" fill="#07CFF6"/>
</svg>
