<svg width="17" height="167" viewBox="0 0 17 167" fill="none" xmlns="http://www.w3.org/2000/svg">
<path d="M4.24121 2.19141C4.19173 2.19141 4.14844 2.17904 4.11133 2.1543C4.07422 2.12956 4.04329 2.08626 4.01855 2.02441C4 1.96257 3.98454 1.87907 3.97217 1.77393C3.95361 1.67497 3.94434 1.54818 3.94434 1.39355C3.94434 1.24512 3.95361 1.11833 3.97217 1.01318C3.98454 0.90804 4 0.824544 4.01855 0.762695C4.04329 0.700846 4.07422 0.657552 4.11133 0.632813C4.14844 0.608073 4.19173 0.595703 4.24121 0.595703L15.7637 0.595703C15.8132 0.595703 15.8564 0.608073 15.8936 0.632813C15.9307 0.663737 15.9585 0.710124 15.9771 0.771973C16.0018 0.840007 16.0203 0.923503 16.0327 1.02246C16.0513 1.1276 16.0605 1.2513 16.0605 1.39355C16.0605 1.54818 16.0513 1.67497 16.0327 1.77393C16.0203 1.87907 16.0018 1.96257 15.9771 2.02441C15.9585 2.08626 15.9307 2.12956 15.8936 2.1543C15.8564 2.17904 15.8132 2.19141 15.7637 2.19141L4.24121 2.19141ZM6.50488 10.4482C6.07812 10.4482 5.69775 10.3678 5.36377 10.207C5.02979 10.0524 4.74837 9.82975 4.51953 9.53906C4.29069 9.24837 4.11751 8.90202 4 8.5C3.88249 8.09798 3.82373 7.65576 3.82373 7.17334C3.82373 6.87646 3.84847 6.59196 3.89795 6.31982C3.94124 6.05387 3.99691 5.81266 4.06494 5.59619C4.13916 5.3859 4.21338 5.20654 4.2876 5.05811C4.368 4.90967 4.43913 4.80143 4.50098 4.7334C4.56283 4.66536 4.64941 4.61589 4.76074 4.58496C4.87207 4.55404 5.0236 4.53857 5.21533 4.53857C5.33285 4.53857 5.4318 4.54476 5.51221 4.55713C5.59261 4.5695 5.65755 4.58496 5.70703 4.60352C5.75651 4.62207 5.79053 4.64681 5.80908 4.67773C5.83382 4.71484 5.84619 4.75505 5.84619 4.79834C5.84619 4.86637 5.8029 4.96533 5.71631 5.09521C5.6359 5.23128 5.54622 5.39518 5.44727 5.58691C5.34831 5.78483 5.25553 6.01676 5.16895 6.28271C5.08854 6.54867 5.04834 6.85482 5.04834 7.20117C5.04834 7.46094 5.07617 7.69596 5.13184 7.90625C5.1875 8.11654 5.2679 8.29899 5.37305 8.45361C5.48438 8.60824 5.62354 8.72575 5.79053 8.80615C5.95752 8.89274 6.15544 8.93604 6.38428 8.93604C6.6193 8.93604 6.81722 8.87419 6.97803 8.75049C7.13883 8.63298 7.28109 8.47526 7.40479 8.27734C7.52848 8.07943 7.63672 7.85677 7.72949 7.60938C7.82845 7.36198 7.9305 7.10531 8.03564 6.83936C8.14079 6.57959 8.2583 6.32292 8.38818 6.06934C8.52425 5.82194 8.68815 5.59928 8.87988 5.40137C9.07161 5.20345 9.30046 5.04264 9.56641 4.91895C9.83236 4.80143 10.1509 4.74268 10.522 4.74268C10.8498 4.74268 11.1621 4.80452 11.459 4.92822C11.762 5.05811 12.0249 5.24984 12.2476 5.50342C12.4764 5.757 12.6589 6.07243 12.7949 6.44971C12.931 6.83317 12.999 7.27848 12.999 7.78564C12.999 8.0083 12.9805 8.23096 12.9434 8.45361C12.9062 8.67627 12.8599 8.87728 12.8042 9.05664C12.7485 9.236 12.6867 9.38753 12.6187 9.51123C12.5568 9.64111 12.5011 9.73698 12.4517 9.79883C12.4022 9.86686 12.3589 9.91016 12.3218 9.92871C12.2847 9.95345 12.2414 9.96891 12.1919 9.9751C12.1486 9.98747 12.0929 9.99674 12.0249 10.0029C11.9569 10.0153 11.8734 10.0215 11.7744 10.0215C11.6693 10.0215 11.5765 10.0153 11.4961 10.0029C11.4219 9.99674 11.36 9.98128 11.3105 9.95654C11.2611 9.93799 11.224 9.91325 11.1992 9.88232C11.1807 9.8514 11.1714 9.81738 11.1714 9.78027C11.1714 9.72461 11.2054 9.64421 11.2734 9.53906C11.3415 9.43392 11.4126 9.29785 11.4868 9.13086C11.5672 8.96387 11.6414 8.76595 11.7095 8.53711C11.7775 8.31445 11.8115 8.05778 11.8115 7.76709C11.8115 7.50732 11.7806 7.27848 11.7188 7.08057C11.6631 6.88265 11.5796 6.71875 11.4683 6.58887C11.3631 6.46517 11.2363 6.3693 11.0879 6.30127C10.9395 6.23942 10.7786 6.2085 10.6055 6.2085C10.3643 6.2085 10.1602 6.27035 9.99316 6.39404C9.83236 6.51774 9.6901 6.67855 9.56641 6.87646C9.44271 7.07438 9.33138 7.30013 9.23242 7.55371C9.13346 7.80729 9.03141 8.06396 8.92627 8.32373C8.82113 8.58968 8.70361 8.84945 8.57373 9.10303C8.44385 9.36279 8.28613 9.59163 8.10059 9.78955C7.91504 9.98747 7.69238 10.1452 7.43262 10.2627C7.17285 10.3864 6.86361 10.4482 6.50488 10.4482ZM12.8228 19.6885C12.8228 19.874 12.7795 20.0008 12.6929 20.0688C12.6125 20.1369 12.4919 20.1709 12.3311 20.1709H4.23193C4.18245 20.1709 4.13916 20.1585 4.10205 20.1338C4.07113 20.109 4.04329 20.0658 4.01855 20.0039C3.99382 19.9482 3.97526 19.8709 3.96289 19.772C3.95052 19.673 3.94434 19.5524 3.94434 19.4102C3.94434 19.2555 3.95052 19.1287 3.96289 19.0298C3.97526 18.9308 3.99382 18.8504 4.01855 18.7886C4.04329 18.7329 4.07113 18.6927 4.10205 18.668C4.13916 18.6432 4.18245 18.6309 4.23193 18.6309H11.5518V14.3169H6.89453C6.31934 14.3169 5.8833 14.4004 5.58643 14.5674C5.29574 14.7406 5.15039 15.0467 5.15039 15.4858C5.15039 15.6281 5.16276 15.7549 5.1875 15.8662C5.21842 15.9775 5.24935 16.0765 5.28027 16.1631C5.3112 16.2497 5.33903 16.3239 5.36377 16.3857C5.39469 16.4476 5.41016 16.5033 5.41016 16.5527C5.41016 16.5837 5.40088 16.6115 5.38232 16.6362C5.36995 16.6672 5.34212 16.6888 5.29883 16.7012C5.25553 16.7197 5.19678 16.7352 5.12256 16.7476C5.04834 16.7599 4.95557 16.7661 4.84424 16.7661C4.66488 16.7661 4.52262 16.7537 4.41748 16.729C4.31852 16.7043 4.24121 16.6672 4.18555 16.6177C4.13607 16.5682 4.08968 16.494 4.04639 16.395C4.00309 16.2961 3.96908 16.1816 3.94434 16.0518C3.91341 15.9281 3.88867 15.7951 3.87012 15.6528C3.85156 15.5106 3.84229 15.3683 3.84229 15.2261C3.84229 14.7931 3.89795 14.422 4.00928 14.1128C4.12679 13.8035 4.29997 13.55 4.52881 13.3521C4.76383 13.1541 5.05762 13.0088 5.41016 12.916C5.76888 12.8294 6.18945 12.7861 6.67188 12.7861H11.5518V11.6172C11.5518 11.5244 11.6012 11.4502 11.7002 11.3945C11.7992 11.3389 11.96 11.311 12.1826 11.311C12.3001 11.311 12.3991 11.3172 12.4795 11.3296C12.5599 11.3481 12.6248 11.3698 12.6743 11.3945C12.73 11.4193 12.7671 11.4502 12.7856 11.4873C12.8104 11.5306 12.8228 11.577 12.8228 11.6265V12.7861H14.8081C14.8514 12.7861 14.8916 12.7954 14.9287 12.814C14.9658 12.8387 14.9967 12.8789 15.0215 12.9346C15.0524 12.9964 15.0741 13.0768 15.0864 13.1758C15.0988 13.2747 15.105 13.3984 15.105 13.5469C15.105 13.7015 15.0988 13.8283 15.0864 13.9272C15.0741 14.0262 15.0524 14.1035 15.0215 14.1592C14.9967 14.2148 14.9658 14.255 14.9287 14.2798C14.8916 14.3045 14.8514 14.3169 14.8081 14.3169H12.8228V19.6885ZM15.4019 20.3472C15.0431 20.3472 14.7988 20.2791 14.6689 20.1431C14.5391 20.007 14.4741 19.7565 14.4741 19.3916C14.4741 19.0329 14.536 18.7855 14.6597 18.6494C14.7896 18.5195 15.0308 18.4546 15.3833 18.4546C15.742 18.4546 15.9863 18.5226 16.1162 18.6587C16.2461 18.7948 16.311 19.0452 16.311 19.4102C16.311 19.7689 16.2461 20.0132 16.1162 20.1431C15.9925 20.2791 15.7544 20.3472 15.4019 20.3472ZM4.22266 29.3091C4.14844 29.3091 4.09277 29.2843 4.05566 29.2349C4.01855 29.1854 3.99072 29.1174 3.97217 29.0308C3.95361 28.9442 3.94434 28.8174 3.94434 28.6504C3.94434 28.4896 3.95361 28.3597 3.97217 28.2607C3.99072 28.168 4.01855 28.0999 4.05566 28.0566C4.09277 28.0133 4.14844 27.9917 4.22266 27.9917H5.05762C4.66797 27.6268 4.36491 27.2186 4.14844 26.7671C3.93197 26.3218 3.82373 25.8486 3.82373 25.3477C3.82373 24.9085 3.88249 24.5096 4 24.1509C4.11133 23.7983 4.27523 23.4953 4.4917 23.2417C4.70817 22.9943 4.97412 22.7995 5.28955 22.6572C5.60498 22.5212 5.9637 22.4531 6.36572 22.4531C6.83577 22.4531 7.24398 22.549 7.59033 22.7407C7.93669 22.9325 8.22428 23.2077 8.45313 23.5664C8.68197 23.9251 8.85205 24.3643 8.96338 24.8838C9.08089 25.4033 9.13965 25.9878 9.13965 26.6372V27.7876H9.78906C10.1107 27.7876 10.3952 27.7536 10.6426 27.6855C10.89 27.6175 11.0941 27.5062 11.2549 27.3516C11.4219 27.2031 11.5456 27.0083 11.626 26.7671C11.7126 26.5259 11.7559 26.229 11.7559 25.8765C11.7559 25.4992 11.7095 25.159 11.6167 24.856C11.5301 24.5591 11.4312 24.2962 11.3198 24.0674C11.2147 23.8447 11.1157 23.6561 11.0229 23.5015C10.9364 23.353 10.8931 23.2417 10.8931 23.1675C10.8931 23.118 10.9054 23.0747 10.9302 23.0376C10.9549 23.0005 10.992 22.9665 11.0415 22.9355C11.091 22.9108 11.1528 22.8923 11.2271 22.8799C11.3075 22.8675 11.394 22.8613 11.4868 22.8613C11.6414 22.8613 11.762 22.8706 11.8486 22.8892C11.9414 22.9139 12.028 22.9665 12.1084 23.0469C12.1888 23.1335 12.2816 23.2788 12.3867 23.4829C12.498 23.687 12.597 23.922 12.6836 24.188C12.7764 24.4539 12.8506 24.7446 12.9063 25.0601C12.9681 25.3755 12.999 25.694 12.999 26.0156C12.999 26.6156 12.931 27.1258 12.7949 27.5464C12.6589 27.967 12.4578 28.3071 12.1919 28.5669C11.9321 28.8267 11.6074 29.0153 11.2178 29.1328C10.8281 29.2503 10.3735 29.3091 9.854 29.3091H4.22266ZM8.03564 27.7876V26.4795C8.03564 26.0589 7.99854 25.694 7.92432 25.3848C7.85628 25.0755 7.75114 24.8188 7.60889 24.6147C7.47282 24.4106 7.30583 24.2591 7.10791 24.1602C6.91618 24.0674 6.69352 24.021 6.43994 24.021C6.007 24.021 5.66064 24.1571 5.40088 24.4292C5.1473 24.7075 5.02051 25.0941 5.02051 25.5889C5.02051 25.9909 5.12256 26.362 5.32666 26.7021C5.53076 27.0485 5.8431 27.4103 6.26367 27.7876H8.03564ZM4.23193 39.3193C4.18245 39.3193 4.13916 39.307 4.10205 39.2822C4.07113 39.2575 4.04329 39.2173 4.01855 39.1616C3.99382 39.106 3.97526 39.0286 3.96289 38.9297C3.95052 38.8307 3.94434 38.707 3.94434 38.5586C3.94434 38.404 3.95052 38.2772 3.96289 38.1782C3.97526 38.0793 3.99382 38.002 4.01855 37.9463C4.04329 37.8906 4.07113 37.8504 4.10205 37.8257C4.13916 37.8009 4.18245 37.7886 4.23193 37.7886H9.12109C9.59733 37.7886 9.98079 37.7515 10.2715 37.6772C10.5622 37.603 10.8127 37.4948 11.0229 37.3525C11.2332 37.2103 11.394 37.0247 11.5054 36.7959C11.6167 36.5732 11.6724 36.3135 11.6724 36.0166C11.6724 35.6331 11.5363 35.2497 11.2642 34.8662C10.992 34.4827 10.5931 34.0807 10.0674 33.6602H4.23193C4.18245 33.6602 4.13916 33.6478 4.10205 33.623C4.07113 33.5983 4.04329 33.5581 4.01855 33.5024C3.99382 33.4468 3.97526 33.3695 3.96289 33.2705C3.95052 33.1715 3.94434 33.0448 3.94434 32.8901C3.94434 32.7417 3.95052 32.618 3.96289 32.519C3.97526 32.4201 3.99382 32.3397 4.01855 32.2778C4.04329 32.2222 4.07113 32.182 4.10205 32.1572C4.13916 32.1387 4.18245 32.1294 4.23193 32.1294H12.5815C12.631 32.1294 12.6712 32.1387 12.7021 32.1572C12.7393 32.1758 12.7702 32.2129 12.7949 32.2686C12.8258 32.3242 12.8444 32.3953 12.8506 32.4819C12.863 32.5685 12.8691 32.6829 12.8691 32.8252C12.8691 32.9613 12.863 33.0726 12.8506 33.1592C12.8444 33.252 12.8258 33.3231 12.7949 33.3726C12.7702 33.422 12.7393 33.4561 12.7021 33.4746C12.6712 33.4993 12.631 33.5117 12.5815 33.5117H11.4775C12.0033 33.9818 12.3867 34.4487 12.6279 34.9126C12.8753 35.3826 12.999 35.8558 12.999 36.332C12.999 36.8887 12.9032 37.3556 12.7114 37.7329C12.5259 38.1164 12.2754 38.4256 11.96 38.6606C11.6445 38.8957 11.2734 39.0627 10.8467 39.1616C10.4261 39.2668 9.91895 39.3193 9.3252 39.3193H4.23193ZM12.0342 46.9917C11.8981 46.9917 11.7837 46.9886 11.6909 46.9824C11.5981 46.9762 11.5239 46.9639 11.4683 46.9453C11.4188 46.9268 11.3786 46.902 11.3477 46.8711C11.3229 46.8464 11.3105 46.8092 11.3105 46.7598C11.3105 46.7103 11.3229 46.6484 11.3477 46.5742C11.3786 46.5062 11.4064 46.4258 11.4312 46.333C11.4621 46.2464 11.4899 46.1475 11.5146 46.0361C11.5394 45.9248 11.5518 45.8042 11.5518 45.6743C11.5518 45.5197 11.5208 45.3682 11.459 45.2197C11.3971 45.0713 11.2951 44.9136 11.1528 44.7466C11.0106 44.5858 10.8219 44.4157 10.5869 44.2363C10.3519 44.057 10.0643 43.859 9.72412 43.6426H4.23193C4.18245 43.6426 4.13916 43.6302 4.10205 43.6055C4.07113 43.5807 4.04329 43.5405 4.01855 43.4849C3.99382 43.4292 3.97526 43.3519 3.96289 43.2529C3.95052 43.154 3.94434 43.0272 3.94434 42.8726C3.94434 42.7241 3.95052 42.6004 3.96289 42.5015C3.97526 42.4025 3.99382 42.3221 4.01855 42.2603C4.04329 42.2046 4.07113 42.1644 4.10205 42.1396C4.13916 42.1211 4.18245 42.1118 4.23193 42.1118H12.5815C12.631 42.1118 12.6712 42.1211 12.7021 42.1396C12.7393 42.1582 12.7702 42.1953 12.7949 42.251C12.8258 42.3066 12.8444 42.3778 12.8506 42.4644C12.863 42.5509 12.8691 42.6654 12.8691 42.8076C12.8691 42.9437 12.863 43.055 12.8506 43.1416C12.8444 43.2344 12.8258 43.3055 12.7949 43.355C12.7702 43.4045 12.7393 43.4385 12.7021 43.457C12.6712 43.4818 12.631 43.4941 12.5815 43.4941H11.3662C11.7002 43.723 11.9723 43.9364 12.1826 44.1343C12.3929 44.3384 12.5568 44.5301 12.6743 44.7095C12.798 44.8888 12.8815 45.0651 12.9248 45.2383C12.9743 45.4176 12.999 45.597 12.999 45.7764C12.999 45.8568 12.9928 45.9465 12.9805 46.0454C12.9743 46.1506 12.9588 46.2588 12.9341 46.3701C12.9093 46.4814 12.8815 46.5804 12.8506 46.667C12.8197 46.7598 12.7887 46.8247 12.7578 46.8618C12.7269 46.8989 12.696 46.9237 12.665 46.936C12.6403 46.9484 12.6063 46.9577 12.563 46.9639C12.5197 46.9762 12.4548 46.9824 12.3682 46.9824C12.2878 46.9886 12.1764 46.9917 12.0342 46.9917ZM8.76855 55.6011C8.52734 55.6011 8.35417 55.5392 8.24902 55.4155C8.15007 55.298 8.10059 55.1619 8.10059 55.0073V49.5337C7.63672 49.5337 7.21924 49.5801 6.84814 49.6729C6.47705 49.7656 6.15853 49.9202 5.89258 50.1367C5.62663 50.3532 5.42253 50.6346 5.28027 50.981C5.13802 51.3273 5.06689 51.751 5.06689 52.252C5.06689 52.6478 5.09782 53.0003 5.15967 53.3096C5.2277 53.6188 5.30192 53.8848 5.38232 54.1074C5.46273 54.3363 5.53385 54.5218 5.5957 54.6641C5.66374 54.8125 5.69775 54.9238 5.69775 54.998C5.69775 55.0413 5.68538 55.0785 5.66064 55.1094C5.64209 55.1465 5.61117 55.1743 5.56787 55.1929C5.52458 55.2114 5.46273 55.2238 5.38232 55.23C5.30811 55.2424 5.21533 55.2485 5.104 55.2485C5.0236 55.2485 4.95247 55.2454 4.89063 55.2393C4.83496 55.2331 4.78239 55.2238 4.73291 55.2114C4.68962 55.2052 4.64941 55.1898 4.6123 55.165C4.5752 55.1465 4.53809 55.1187 4.50098 55.0815C4.47005 55.0506 4.41439 54.9517 4.33398 54.7847C4.25977 54.6177 4.18555 54.4012 4.11133 54.1353C4.03711 53.8693 3.97217 53.5601 3.9165 53.2075C3.85465 52.8612 3.82373 52.4901 3.82373 52.0942C3.82373 51.4077 3.9196 50.8047 4.11133 50.2852C4.30306 49.7718 4.58757 49.3389 4.96484 48.9863C5.34212 48.6338 5.81527 48.3678 6.38428 48.1885C6.95329 48.0091 7.61507 47.9194 8.36963 47.9194C9.08708 47.9194 9.73031 48.0122 10.2993 48.1978C10.8745 48.3833 11.36 48.6493 11.7559 48.9956C12.1579 49.3481 12.464 49.7718 12.6743 50.2666C12.8908 50.7614 12.999 51.3149 12.999 51.9272C12.999 52.5828 12.8939 53.1395 12.6836 53.5972C12.4733 54.061 12.1888 54.4414 11.8301 54.7383C11.4775 55.0352 11.0601 55.2516 10.5776 55.3877C10.1014 55.5299 9.59115 55.6011 9.04688 55.6011H8.76855ZM9.22314 54.061C10.0272 54.0796 10.658 53.9002 11.1157 53.5229C11.5734 53.1519 11.8022 52.5983 11.8022 51.8623C11.8022 51.485 11.7311 51.1541 11.5889 50.8696C11.4466 50.5851 11.258 50.347 11.0229 50.1553C10.7879 49.9635 10.5127 49.8151 10.1973 49.71C9.88802 49.6048 9.56331 49.5461 9.22314 49.5337V54.061ZM4.23193 59.4697C4.18245 59.4697 4.13916 59.4574 4.10205 59.4326C4.07113 59.4079 4.04329 59.3677 4.01855 59.312C3.99382 59.2563 3.97526 59.179 3.96289 59.0801C3.95052 58.9811 3.94434 58.8543 3.94434 58.6997C3.94434 58.5513 3.95052 58.4276 3.96289 58.3286C3.97526 58.2297 3.99382 58.1493 4.01855 58.0874C4.04329 58.0317 4.07113 57.9915 4.10205 57.9668C4.13916 57.9482 4.18245 57.939 4.23193 57.939H12.5815C12.6248 57.939 12.665 57.9482 12.7021 57.9668C12.7393 57.9915 12.7702 58.0317 12.7949 58.0874C12.8197 58.1493 12.8382 58.2297 12.8506 58.3286C12.863 58.4276 12.8691 58.5513 12.8691 58.6997C12.8691 58.8543 12.863 58.9811 12.8506 59.0801C12.8382 59.179 12.8197 59.2563 12.7949 59.312C12.7702 59.3677 12.7393 59.4079 12.7021 59.4326C12.665 59.4574 12.6248 59.4697 12.5815 59.4697H4.23193ZM15.4019 59.646C15.0431 59.646 14.7988 59.578 14.6689 59.4419C14.5391 59.3058 14.4741 59.0553 14.4741 58.6904C14.4741 58.3317 14.536 58.0843 14.6597 57.9482C14.7896 57.8184 15.0308 57.7534 15.3833 57.7534C15.742 57.7534 15.9863 57.8215 16.1162 57.9575C16.2461 58.0936 16.311 58.3441 16.311 58.709C16.311 59.0677 16.2461 59.312 16.1162 59.4419C15.9925 59.578 15.7544 59.646 15.4019 59.646ZM4.23193 69.4521C4.18245 69.4521 4.13916 69.4398 4.10205 69.415C4.06494 69.3965 4.03402 69.3594 4.00928 69.3037C3.99072 69.2542 3.97526 69.1862 3.96289 69.0996C3.95052 69.013 3.94434 68.9079 3.94434 68.7842C3.94434 68.6543 3.95052 68.5461 3.96289 68.4595C3.97526 68.3729 3.99072 68.3018 4.00928 68.2461C4.03402 68.1904 4.06494 68.1502 4.10205 68.1255C4.13916 68.1007 4.18245 68.0884 4.23193 68.0884H5.33594C4.8597 67.6493 4.48861 67.1916 4.22266 66.7153C3.95671 66.2453 3.82373 65.7288 3.82373 65.166C3.82373 64.5537 3.94124 64.0311 4.17627 63.5981C4.41748 63.1652 4.7391 62.8127 5.14111 62.5405C5.54932 62.2746 6.02555 62.0798 6.56982 61.9561C7.12028 61.8324 7.69857 61.7705 8.30469 61.7705C9.02214 61.7705 9.66846 61.8478 10.2437 62.0024C10.825 62.1571 11.3198 62.3859 11.728 62.689C12.1362 62.992 12.4486 63.3662 12.665 63.8115C12.8877 64.263 12.999 64.7826 12.999 65.3701C12.999 65.8587 12.8908 66.304 12.6743 66.7061C12.464 67.1143 12.1517 67.5163 11.7373 67.9121H16.5894C16.6326 67.9121 16.6729 67.9214 16.71 67.9399C16.7533 67.9647 16.7842 68.008 16.8027 68.0698C16.8275 68.1317 16.846 68.209 16.8584 68.3018C16.877 68.4007 16.8862 68.5244 16.8862 68.6729C16.8862 68.8275 16.877 68.9543 16.8584 69.0532C16.846 69.1522 16.8275 69.2295 16.8027 69.2852C16.7842 69.3408 16.7533 69.381 16.71 69.4058C16.6729 69.4367 16.6326 69.4521 16.5894 69.4521H4.23193ZM10.1045 67.9121C10.6178 67.4977 11.0075 67.0957 11.2734 66.7061C11.5456 66.3226 11.6816 65.9206 11.6816 65.5C11.6816 65.1104 11.5889 64.7795 11.4033 64.5073C11.2178 64.2352 10.9735 64.0125 10.6704 63.8394C10.3674 63.6724 10.0241 63.5487 9.64063 63.4683C9.25716 63.394 8.86751 63.3569 8.47168 63.3569C8.05111 63.3569 7.63981 63.3879 7.23779 63.4497C6.83577 63.5177 6.47705 63.6322 6.16162 63.793C5.85238 63.9538 5.60189 64.1672 5.41016 64.4331C5.22461 64.6991 5.13184 65.033 5.13184 65.4351C5.13184 65.6392 5.15967 65.834 5.21533 66.0195C5.271 66.2113 5.36377 66.4061 5.49365 66.604C5.62354 66.8019 5.79053 67.0091 5.99463 67.2256C6.20492 67.4421 6.46159 67.6709 6.76465 67.9121H10.1045ZM11.1343 86.2256C10.7137 86.2256 10.2839 86.1978 9.84473 86.1421C9.4056 86.0926 8.97884 86.0091 8.56445 85.8916C8.15007 85.7741 7.75732 85.6195 7.38623 85.4277C7.02132 85.236 6.69971 85.001 6.42139 84.7227C6.14307 84.4443 5.9235 84.1196 5.7627 83.7485C5.60807 83.3836 5.53076 82.9631 5.53076 82.4868C5.53076 82.2332 5.55859 81.9982 5.61426 81.7817C5.67611 81.5653 5.7627 81.3735 5.87402 81.2065C5.98535 81.0396 6.1276 80.8973 6.30078 80.7798C6.48014 80.6685 6.68424 80.5911 6.91309 80.5479C6.66569 80.3005 6.45231 80.0592 6.27295 79.8242C6.09977 79.5954 5.95752 79.3696 5.84619 79.147C5.73486 78.9243 5.65446 78.7048 5.60498 78.4883C5.5555 78.278 5.53076 78.0708 5.53076 77.8667C5.53076 77.6007 5.5555 77.3657 5.60498 77.1616C5.66064 76.9575 5.73796 76.7751 5.83691 76.6143C5.94206 76.4596 6.06885 76.3267 6.21729 76.2153C6.36572 76.104 6.53271 76.0112 6.71826 75.937C6.90381 75.8628 7.10791 75.8102 7.33057 75.7793C7.55322 75.7484 7.79443 75.7329 8.0542 75.7329C8.32015 75.7329 8.62321 75.7546 8.96338 75.7979C9.30973 75.8411 9.66536 75.9123 10.0303 76.0112C10.3952 76.1102 10.7508 76.2463 11.0972 76.4194C11.4497 76.5926 11.762 76.806 12.0342 77.0596C12.3125 77.3193 12.5352 77.6255 12.7021 77.978C12.8753 78.3306 12.9619 78.7419 12.9619 79.2119C12.9619 79.4098 12.9372 79.5985 12.8877 79.7778C12.8444 79.9634 12.7733 80.1396 12.6743 80.3066C12.5754 80.4736 12.4517 80.6344 12.3032 80.7891C12.1548 80.9437 11.9785 81.1014 11.7744 81.2622L12.5908 81.4199C12.6774 81.4447 12.7424 81.5003 12.7856 81.5869C12.8289 81.6735 12.8506 81.8343 12.8506 82.0693C12.8506 82.1807 12.8444 82.2734 12.832 82.3477C12.8197 82.4281 12.8011 82.4899 12.7764 82.5332C12.7578 82.5765 12.7331 82.6043 12.7021 82.6167C12.6712 82.6353 12.6341 82.6383 12.5908 82.626L8.32324 81.8003C7.78516 81.7013 7.38623 81.7261 7.12646 81.8745C6.87288 82.0229 6.74609 82.3044 6.74609 82.7188C6.74609 82.9723 6.80794 83.2012 6.93164 83.4053C7.06152 83.6094 7.2347 83.7887 7.45117 83.9434C7.66764 84.098 7.91813 84.2279 8.20264 84.333C8.49333 84.4382 8.79639 84.5247 9.11182 84.5928C9.43343 84.6608 9.76123 84.7103 10.0952 84.7412C10.4292 84.7721 10.7508 84.7876 11.0601 84.7876C11.5981 84.7876 12.1084 84.7134 12.5908 84.5649C13.0794 84.4227 13.5062 84.1753 13.8711 83.8228C14.2422 83.4702 14.536 82.9971 14.7524 82.4033C14.9751 81.8158 15.0864 81.0767 15.0864 80.186C15.0864 79.4562 15.006 78.8068 14.8452 78.2378C14.6844 77.6688 14.4648 77.1678 14.1865 76.7349C13.9144 76.3019 13.599 75.9308 13.2402 75.6216C12.8815 75.3123 12.498 75.0495 12.0898 74.833C11.6878 74.6227 11.2734 74.4526 10.8467 74.3228C10.4261 74.1929 10.0179 74.0939 9.62207 74.0259C9.23242 73.9578 8.86442 73.9115 8.51807 73.8867C8.17171 73.8682 7.87793 73.8589 7.63672 73.8589C6.9502 73.8589 6.32243 73.9362 5.75342 74.0908C5.18441 74.2516 4.69271 74.5269 4.27832 74.9165C3.86393 75.3062 3.54232 75.8288 3.31348 76.4844C3.08464 77.14 2.97021 77.9657 2.97021 78.9614C2.97021 79.4129 2.99805 79.8211 3.05371 80.186C3.10319 80.5509 3.15885 80.8664 3.2207 81.1323C3.27637 81.4045 3.33203 81.624 3.3877 81.791C3.43717 81.958 3.46191 82.0724 3.46191 82.1343C3.46191 82.1714 3.45264 82.2023 3.43408 82.2271C3.40934 82.258 3.37533 82.2796 3.33203 82.292C3.28255 82.3105 3.2238 82.3229 3.15576 82.3291C3.08154 82.3353 2.99186 82.3384 2.88672 82.3384C2.80013 82.3384 2.729 82.3353 2.67334 82.3291C2.61768 82.3291 2.5682 82.3229 2.5249 82.3105C2.47542 82.2982 2.43213 82.2796 2.39502 82.2549C2.35791 82.2363 2.32389 82.2085 2.29297 82.1714C2.26204 82.1343 2.21566 82.026 2.15381 81.8467C2.09196 81.6735 2.03011 81.4354 1.96826 81.1323C1.90641 80.8354 1.85384 80.486 1.81055 80.084C1.76725 79.682 1.74561 79.2397 1.74561 78.7573C1.74561 77.6007 1.88167 76.6204 2.15381 75.8164C2.42594 75.0186 2.81559 74.366 3.32275 73.8589C3.82992 73.3579 4.43913 72.9961 5.15039 72.7734C5.86165 72.5508 6.65641 72.4395 7.53467 72.4395C7.85628 72.4395 8.22428 72.4549 8.63867 72.4858C9.05924 72.5229 9.50456 72.5879 9.97461 72.6807C10.4508 72.7796 10.9333 72.9157 11.4219 73.0889C11.9167 73.262 12.3991 73.4847 12.8691 73.7568C13.3392 74.0352 13.7814 74.3691 14.1958 74.7588C14.6164 75.1546 14.9813 75.6185 15.2905 76.1504C15.606 76.6885 15.8534 77.3008 16.0327 77.9873C16.2121 78.68 16.3018 79.4624 16.3018 80.3345C16.3018 81.3488 16.1781 82.224 15.9307 82.96C15.6895 83.7021 15.3462 84.3145 14.9009 84.7969C14.4556 85.2793 13.9113 85.638 13.2681 85.873C12.631 86.1081 11.9198 86.2256 11.1343 86.2256ZM10.5313 80.8447C10.9271 80.6097 11.2301 80.3685 11.4404 80.1211C11.6507 79.8737 11.7559 79.5923 11.7559 79.2769C11.7559 79.0171 11.6909 78.7821 11.561 78.5718C11.4373 78.3615 11.2734 78.179 11.0693 78.0244C10.8714 77.8698 10.6457 77.7368 10.3921 77.6255C10.1385 77.5203 9.87874 77.4338 9.61279 77.3657C9.34684 77.2977 9.08708 77.2482 8.8335 77.2173C8.5861 77.1925 8.36654 77.1802 8.1748 77.1802C7.71712 77.1802 7.36458 77.2606 7.11719 77.4214C6.86979 77.5884 6.74609 77.8667 6.74609 78.2563C6.74609 78.4048 6.77083 78.5563 6.82031 78.7109C6.87598 78.8656 6.95638 79.0295 7.06152 79.2026C7.17285 79.3758 7.3151 79.5583 7.48828 79.75C7.66764 79.9479 7.87793 80.1644 8.11914 80.3994L10.5313 80.8447ZM12.2012 96.2544C11.9847 96.2544 11.827 96.2235 11.728 96.1616C11.6353 96.106 11.5889 96.0317 11.5889 95.939L11.5889 94.7422C11.3662 94.9587 11.1188 95.1102 10.8467 95.1968C10.5807 95.2834 10.3024 95.3267 10.0117 95.3267C9.5293 95.3267 9.10254 95.2493 8.73145 95.0947C8.36035 94.9401 8.04492 94.7174 7.78516 94.4268C7.53158 94.1423 7.33675 93.8021 7.20068 93.4062C7.06462 93.0104 6.99658 92.5713 6.99658 92.0889C6.99658 91.7487 7.03988 91.424 7.12646 91.1147C7.21924 90.8117 7.33366 90.5767 7.46973 90.4097C7.3584 90.2983 7.23161 90.2056 7.08936 90.1313C6.9471 90.0633 6.7832 90.0293 6.59766 90.0293C6.38118 90.0293 6.20182 90.1283 6.05957 90.3262C5.91732 90.5303 5.84001 90.7993 5.82764 91.1333L5.73486 93.3135C5.72249 93.7279 5.66374 94.1082 5.55859 94.4546C5.45964 94.8009 5.31429 95.1009 5.12256 95.3545C4.93701 95.6081 4.70508 95.806 4.42676 95.9482C4.15462 96.0905 3.8361 96.1616 3.47119 96.1616C3.08773 96.1616 2.72282 96.0812 2.37646 95.9204C2.03011 95.7596 1.72705 95.5122 1.46729 95.1782C1.20133 94.8504 0.994141 94.4299 0.845703 93.9165C0.691081 93.4032 0.61377 92.797 0.61377 92.0981C0.61377 91.424 0.672526 90.8488 0.790039 90.3726C0.901367 89.9025 1.05599 89.516 1.25391 89.2129C1.45182 88.9098 1.68994 88.6903 1.96826 88.5542C2.2404 88.4181 2.53727 88.3501 2.85889 88.3501C3.06299 88.3501 3.2609 88.3748 3.45264 88.4243C3.64437 88.4738 3.82682 88.548 4 88.647C4.17318 88.7521 4.33708 88.8789 4.4917 89.0273C4.65251 89.182 4.81022 89.3582 4.96484 89.5562C5.11947 89.2531 5.31429 89.0273 5.54932 88.8789C5.78434 88.7367 6.03792 88.6655 6.31006 88.6655C6.68734 88.6655 7.02441 88.7428 7.32129 88.8975C7.61816 89.0521 7.88411 89.2438 8.11914 89.4727C8.34798 89.2809 8.60465 89.1294 8.88916 89.0181C9.17985 88.9067 9.5293 88.8511 9.9375 88.8511C10.4137 88.8511 10.8405 88.9315 11.2178 89.0923C11.5951 89.2531 11.9136 89.4757 12.1733 89.7603C12.4331 90.0448 12.631 90.3849 12.7671 90.7808C12.9093 91.1828 12.9805 91.6188 12.9805 92.0889C12.9805 92.3424 12.965 92.5775 12.9341 92.7939C12.9093 93.0166 12.8722 93.2238 12.8228 93.4155V95.939C12.8228 96.0441 12.7702 96.1214 12.665 96.1709C12.5661 96.2266 12.4115 96.2544 12.2012 96.2544ZM10.0024 93.8608C10.5715 93.8608 11.0137 93.7031 11.3291 93.3877C11.6507 93.0785 11.8115 92.6362 11.8115 92.061C11.8115 91.7642 11.762 91.5044 11.6631 91.2817C11.5641 91.0653 11.4281 90.8828 11.2549 90.7344C11.0817 90.5921 10.8807 90.4839 10.6519 90.4097C10.4292 90.3416 10.1942 90.3076 9.94678 90.3076C9.39632 90.3076 8.96338 90.4622 8.64795 90.7715C8.33252 91.0869 8.1748 91.526 8.1748 92.0889C8.1748 92.3919 8.22119 92.6548 8.31396 92.8774C8.41292 93.1001 8.5459 93.2826 8.71289 93.4248C8.88607 93.5732 9.08398 93.6815 9.30664 93.7495C9.5293 93.8237 9.76123 93.8608 10.0024 93.8608ZM3.3877 94.6309C3.74642 94.6309 4.02165 94.4824 4.21338 94.1855C4.4113 93.8949 4.51644 93.499 4.52881 92.998L4.60303 90.8364C4.4484 90.6385 4.29997 90.4746 4.15771 90.3447C4.02165 90.221 3.89176 90.1221 3.76807 90.0479C3.63818 89.9736 3.51139 89.9211 3.3877 89.8901C3.264 89.8654 3.13721 89.853 3.00732 89.853C2.60531 89.853 2.30225 90.0571 2.09814 90.4653C1.88786 90.8735 1.78271 91.4425 1.78271 92.1724C1.78271 92.6362 1.8291 93.0228 1.92188 93.332C2.00846 93.6475 2.12598 93.901 2.27441 94.0928C2.42285 94.2845 2.59294 94.4206 2.78467 94.501C2.9764 94.5876 3.17741 94.6309 3.3877 94.6309ZM4.23193 110.606C4.18245 110.606 4.13916 110.594 4.10205 110.569C4.07113 110.545 4.04329 110.504 4.01855 110.449C3.99382 110.393 3.97526 110.316 3.96289 110.217C3.95052 110.118 3.94434 109.994 3.94434 109.846C3.94434 109.691 3.95052 109.564 3.96289 109.465C3.97526 109.366 3.99382 109.286 4.01855 109.224C4.04329 109.168 4.07113 109.128 4.10205 109.104C4.13916 109.079 4.18245 109.066 4.23193 109.066H9.30664C9.65918 109.066 9.98079 109.035 10.2715 108.974C10.5622 108.912 10.8127 108.813 11.0229 108.677C11.2332 108.541 11.394 108.368 11.5054 108.157C11.6167 107.947 11.6724 107.7 11.6724 107.415C11.6724 107.062 11.5363 106.707 11.2642 106.348C10.992 105.996 10.5931 105.606 10.0674 105.179H4.23193C4.18245 105.179 4.13916 105.167 4.10205 105.142C4.07113 105.117 4.04329 105.074 4.01855 105.012C3.99382 104.957 3.97526 104.879 3.96289 104.78C3.95052 104.681 3.94434 104.558 3.94434 104.409C3.94434 104.267 3.95052 104.143 3.96289 104.038C3.97526 103.939 3.99382 103.859 4.01855 103.797C4.04329 103.741 4.07113 103.701 4.10205 103.676C4.13916 103.658 4.18245 103.648 4.23193 103.648H9.30664C9.65918 103.648 9.98079 103.614 10.2715 103.546C10.5622 103.478 10.8127 103.376 11.0229 103.24C11.2332 103.104 11.394 102.931 11.5054 102.721C11.6167 102.517 11.6724 102.272 11.6724 101.988C11.6724 101.635 11.5363 101.28 11.2642 100.921C10.992 100.562 10.5931 100.173 10.0674 99.752H4.23193C4.18245 99.752 4.13916 99.7396 4.10205 99.7148C4.07113 99.6901 4.04329 99.6499 4.01855 99.5942C3.99382 99.5386 3.97526 99.4613 3.96289 99.3623C3.95052 99.2633 3.94434 99.1366 3.94434 98.9819C3.94434 98.8335 3.95052 98.7098 3.96289 98.6108C3.97526 98.5119 3.99382 98.4315 4.01855 98.3696C4.04329 98.314 4.07113 98.2738 4.10205 98.249C4.13916 98.2305 4.18245 98.2212 4.23193 98.2212H12.5815C12.631 98.2212 12.6712 98.2305 12.7021 98.249C12.7393 98.2676 12.7702 98.3047 12.7949 98.3604C12.8258 98.416 12.8444 98.4871 12.8506 98.5737C12.863 98.6603 12.8691 98.7747 12.8691 98.917C12.8691 99.0531 12.863 99.1644 12.8506 99.251C12.8444 99.3438 12.8258 99.4149 12.7949 99.4644C12.7702 99.5138 12.7393 99.5479 12.7021 99.5664C12.6712 99.5911 12.631 99.6035 12.5815 99.6035H11.4775C12.0033 100.074 12.3867 100.528 12.6279 100.967C12.8753 101.413 12.999 101.861 12.999 102.312C12.999 102.659 12.9588 102.968 12.8784 103.24C12.798 103.519 12.6836 103.763 12.5352 103.973C12.3929 104.183 12.2197 104.363 12.0156 104.511C11.8177 104.66 11.5951 104.783 11.3477 104.882C11.6507 105.161 11.9074 105.424 12.1177 105.671C12.328 105.924 12.498 106.166 12.6279 106.395C12.7578 106.63 12.8506 106.855 12.9063 107.072C12.9681 107.294 12.999 107.517 12.999 107.74C12.999 108.278 12.9032 108.729 12.7114 109.094C12.5259 109.459 12.2754 109.753 11.96 109.976C11.6445 110.204 11.2734 110.365 10.8467 110.458C10.4261 110.557 9.98079 110.606 9.51074 110.606H4.23193ZM4.22266 119.689C4.14844 119.689 4.09277 119.664 4.05566 119.615C4.01855 119.565 3.99072 119.497 3.97217 119.411C3.95361 119.324 3.94434 119.197 3.94434 119.03C3.94434 118.869 3.95361 118.74 3.97217 118.641C3.99072 118.548 4.01855 118.48 4.05566 118.437C4.09277 118.393 4.14844 118.372 4.22266 118.372H5.05762C4.66797 118.007 4.36491 117.598 4.14844 117.147C3.93197 116.702 3.82373 116.229 3.82373 115.728C3.82373 115.288 3.88249 114.889 4 114.531C4.11133 114.178 4.27523 113.875 4.4917 113.622C4.70817 113.374 4.97412 113.179 5.28955 113.037C5.60498 112.901 5.9637 112.833 6.36572 112.833C6.83577 112.833 7.24398 112.929 7.59033 113.121C7.93669 113.312 8.22428 113.588 8.45313 113.946C8.68197 114.305 8.85205 114.744 8.96338 115.264C9.08089 115.783 9.13965 116.368 9.13965 117.017V118.167H9.78906C10.1107 118.167 10.3952 118.133 10.6426 118.065C10.89 117.997 11.0941 117.886 11.2549 117.731C11.4219 117.583 11.5456 117.388 11.626 117.147C11.7126 116.906 11.7559 116.609 11.7559 116.256C11.7559 115.879 11.7095 115.539 11.6167 115.236C11.5301 114.939 11.4312 114.676 11.3198 114.447C11.2147 114.225 11.1157 114.036 11.0229 113.881C10.9364 113.733 10.8931 113.622 10.8931 113.547C10.8931 113.498 10.9054 113.455 10.9302 113.417C10.9549 113.38 10.992 113.346 11.0415 113.315C11.091 113.291 11.1528 113.272 11.2271 113.26C11.3075 113.247 11.394 113.241 11.4868 113.241C11.6414 113.241 11.762 113.25 11.8486 113.269C11.9414 113.294 12.028 113.346 12.1084 113.427C12.1888 113.513 12.2816 113.659 12.3867 113.863C12.498 114.067 12.597 114.302 12.6836 114.568C12.7764 114.834 12.8506 115.125 12.9063 115.44C12.9681 115.755 12.999 116.074 12.999 116.396C12.999 116.995 12.931 117.506 12.7949 117.926C12.6589 118.347 12.4578 118.687 12.1919 118.947C11.9321 119.207 11.6074 119.395 11.2178 119.513C10.8281 119.63 10.3735 119.689 9.854 119.689H4.22266ZM8.03564 118.167V116.859C8.03564 116.439 7.99854 116.074 7.92432 115.765C7.85628 115.455 7.75114 115.199 7.60889 114.995C7.47282 114.791 7.30583 114.639 7.10791 114.54C6.91618 114.447 6.69352 114.401 6.43994 114.401C6.007 114.401 5.66064 114.537 5.40088 114.809C5.1473 115.087 5.02051 115.474 5.02051 115.969C5.02051 116.371 5.12256 116.742 5.32666 117.082C5.53076 117.428 5.8431 117.79 6.26367 118.167H8.03564ZM4.23193 124.04C4.18245 124.04 4.13916 124.028 4.10205 124.003C4.07113 123.978 4.04329 123.938 4.01855 123.882C3.99382 123.827 3.97526 123.749 3.96289 123.65C3.95052 123.551 3.94434 123.425 3.94434 123.27C3.94434 123.122 3.95052 122.998 3.96289 122.899C3.97526 122.8 3.99382 122.72 4.01855 122.658C4.04329 122.602 4.07113 122.562 4.10205 122.537C4.13916 122.519 4.18245 122.509 4.23193 122.509H12.5815C12.6248 122.509 12.665 122.519 12.7021 122.537C12.7393 122.562 12.7702 122.602 12.7949 122.658C12.8197 122.72 12.8382 122.8 12.8506 122.899C12.863 122.998 12.8691 123.122 12.8691 123.27C12.8691 123.425 12.863 123.551 12.8506 123.65C12.8382 123.749 12.8197 123.827 12.7949 123.882C12.7702 123.938 12.7393 123.978 12.7021 124.003C12.665 124.028 12.6248 124.04 12.5815 124.04H4.23193ZM15.4019 124.216C15.0431 124.216 14.7988 124.148 14.6689 124.012C14.5391 123.876 14.4741 123.626 14.4741 123.261C14.4741 122.902 14.536 122.655 14.6597 122.519C14.7896 122.389 15.0308 122.324 15.3833 122.324C15.742 122.324 15.9863 122.392 16.1162 122.528C16.2461 122.664 16.311 122.914 16.311 123.279C16.311 123.638 16.2461 123.882 16.1162 124.012C15.9925 124.148 15.7544 124.216 15.4019 124.216ZM4.23193 128.4C4.18245 128.4 4.13916 128.388 4.10205 128.363C4.07113 128.339 4.04329 128.298 4.01855 128.243C3.99382 128.187 3.97526 128.11 3.96289 128.011C3.95052 127.912 3.94434 127.785 3.94434 127.63C3.94434 127.482 3.95052 127.358 3.96289 127.259C3.97526 127.16 3.99382 127.08 4.01855 127.018C4.04329 126.962 4.07113 126.922 4.10205 126.897C4.13916 126.879 4.18245 126.87 4.23193 126.87H16.6265C16.6759 126.87 16.7192 126.879 16.7563 126.897C16.7935 126.922 16.8244 126.962 16.8491 127.018C16.8739 127.08 16.8924 127.16 16.9048 127.259C16.9172 127.358 16.9233 127.482 16.9233 127.63C16.9233 127.785 16.9172 127.912 16.9048 128.011C16.8924 128.11 16.8739 128.187 16.8491 128.243C16.8244 128.298 16.7935 128.339 16.7563 128.363C16.7192 128.388 16.6759 128.4 16.6265 128.4H4.23193ZM5.01123 133.206C4.5721 133.206 4.27832 133.132 4.12988 132.983C3.98763 132.841 3.9165 132.578 3.9165 132.195C3.9165 131.824 3.98763 131.567 4.12988 131.425C4.27214 131.283 4.55664 131.211 4.9834 131.211C5.42253 131.211 5.71322 131.283 5.85547 131.425C6.00391 131.573 6.07813 131.839 6.07813 132.223C6.07813 132.594 6.007 132.85 5.86475 132.993C5.72249 133.135 5.43799 133.206 5.01123 133.206ZM5.50293 142.038C5.39779 142.038 5.30501 142.035 5.22461 142.029C5.15039 142.023 5.08545 142.01 5.02979 141.992C4.98031 141.979 4.93392 141.961 4.89063 141.936C4.85352 141.917 4.79476 141.868 4.71436 141.788C4.64014 141.713 4.54427 141.583 4.42676 141.398C4.31543 141.212 4.21338 141.002 4.12061 140.767C4.03402 140.538 3.96289 140.288 3.90723 140.016C3.85156 139.743 3.82373 139.462 3.82373 139.171C3.82373 138.571 3.92269 138.04 4.12061 137.576C4.31852 137.112 4.60612 136.722 4.9834 136.407C5.36686 136.097 5.83382 135.859 6.38428 135.692C6.94092 135.532 7.58105 135.451 8.30469 135.451C9.12728 135.451 9.83236 135.55 10.4199 135.748C11.0137 135.952 11.4992 136.227 11.8765 136.574C12.2537 136.926 12.5321 137.338 12.7114 137.808C12.897 138.284 12.9897 138.797 12.9897 139.348C12.9897 139.614 12.965 139.87 12.9155 140.118C12.866 140.371 12.8011 140.603 12.7207 140.813C12.6403 141.024 12.5475 141.209 12.4424 141.37C12.3372 141.537 12.2476 141.658 12.1733 141.732C12.0991 141.806 12.0404 141.856 11.9971 141.88C11.9538 141.911 11.9012 141.936 11.8394 141.955C11.7837 141.973 11.7188 141.986 11.6445 141.992C11.5703 141.998 11.4775 142.001 11.3662 142.001C11.125 142.001 10.9549 141.973 10.856 141.917C10.7632 141.862 10.7168 141.794 10.7168 141.713C10.7168 141.621 10.7663 141.512 10.8652 141.389C10.9704 141.271 11.0848 141.12 11.2085 140.934C11.3322 140.749 11.4435 140.523 11.5425 140.257C11.6476 139.997 11.7002 139.688 11.7002 139.329C11.7002 138.593 11.4157 138.027 10.8467 137.631C10.2839 137.242 9.46436 137.047 8.38818 137.047C7.8501 137.047 7.37695 137.096 6.96875 137.195C6.56673 137.3 6.22965 137.452 5.95752 137.65C5.68538 137.848 5.48128 138.089 5.34521 138.374C5.21533 138.664 5.15039 138.995 5.15039 139.366C5.15039 139.719 5.20605 140.028 5.31738 140.294C5.42871 140.56 5.54932 140.789 5.6792 140.98C5.81527 141.178 5.93587 141.342 6.04102 141.472C6.15234 141.608 6.20801 141.713 6.20801 141.788C6.20801 141.831 6.19564 141.868 6.1709 141.899C6.14616 141.93 6.10286 141.955 6.04102 141.973C5.98535 141.998 5.91113 142.013 5.81836 142.02C5.73177 142.032 5.62663 142.038 5.50293 142.038ZM8.49951 151.668C7.81917 151.668 7.19141 151.578 6.61621 151.399C6.0472 151.22 5.5555 150.951 5.14111 150.592C4.72673 150.239 4.40202 149.794 4.16699 149.256C3.93815 148.724 3.82373 148.105 3.82373 147.4C3.82373 146.714 3.92578 146.114 4.12988 145.601C4.33398 145.093 4.63086 144.67 5.02051 144.33C5.41016 143.989 5.8833 143.736 6.43994 143.569C6.99658 143.402 7.62744 143.318 8.33252 143.318C9.01286 143.318 9.63753 143.405 10.2065 143.578C10.7817 143.757 11.2765 144.023 11.6909 144.376C12.1053 144.735 12.4269 145.18 12.6558 145.712C12.8846 146.244 12.999 146.865 12.999 147.577C12.999 148.263 12.897 148.86 12.6929 149.367C12.4888 149.881 12.1919 150.307 11.8022 150.647C11.4126 150.988 10.9395 151.241 10.3828 151.408C9.82617 151.581 9.1984 151.668 8.49951 151.668ZM8.39746 150.054C8.84896 150.054 9.27572 150.01 9.67773 149.924C10.0798 149.843 10.4323 149.707 10.7354 149.516C11.0384 149.324 11.2765 149.064 11.4497 148.736C11.6291 148.409 11.7188 148 11.7188 147.512C11.7188 147.06 11.6383 146.671 11.4775 146.343C11.3167 146.021 11.0879 145.755 10.791 145.545C10.5003 145.335 10.154 145.177 9.75195 145.072C9.34993 144.973 8.91081 144.923 8.43457 144.923C7.97689 144.923 7.54704 144.964 7.14502 145.044C6.743 145.131 6.39046 145.27 6.0874 145.461C5.79053 145.659 5.55241 145.922 5.37305 146.25C5.19987 146.578 5.11328 146.986 5.11328 147.475C5.11328 147.92 5.19368 148.306 5.35449 148.634C5.5153 148.962 5.74105 149.231 6.03174 149.441C6.32243 149.652 6.66878 149.806 7.0708 149.905C7.47282 150.004 7.91504 150.054 8.39746 150.054ZM4.23193 166.308C4.18245 166.308 4.13916 166.295 4.10205 166.271C4.07113 166.246 4.04329 166.206 4.01855 166.15C3.99382 166.094 3.97526 166.017 3.96289 165.918C3.95052 165.819 3.94434 165.695 3.94434 165.547C3.94434 165.392 3.95052 165.265 3.96289 165.167C3.97526 165.068 3.99382 164.987 4.01855 164.925C4.04329 164.87 4.07113 164.829 4.10205 164.805C4.13916 164.78 4.18245 164.768 4.23193 164.768H9.30664C9.65918 164.768 9.98079 164.737 10.2715 164.675C10.5622 164.613 10.8127 164.514 11.0229 164.378C11.2332 164.242 11.394 164.069 11.5054 163.858C11.6167 163.648 11.6724 163.401 11.6724 163.116C11.6724 162.764 11.5363 162.408 11.2642 162.049C10.992 161.697 10.5931 161.307 10.0674 160.88H4.23193C4.18245 160.88 4.13916 160.868 4.10205 160.843C4.07113 160.819 4.04329 160.775 4.01855 160.713C3.99382 160.658 3.97526 160.58 3.96289 160.481C3.95052 160.382 3.94434 160.259 3.94434 160.11C3.94434 159.968 3.95052 159.844 3.96289 159.739C3.97526 159.64 3.99382 159.56 4.01855 159.498C4.04329 159.442 4.07113 159.402 4.10205 159.377C4.13916 159.359 4.18245 159.35 4.23193 159.35H9.30664C9.65918 159.35 9.98079 159.316 10.2715 159.248C10.5622 159.18 10.8127 159.077 11.0229 158.941C11.2332 158.805 11.394 158.632 11.5054 158.422C11.6167 158.218 11.6724 157.973 11.6724 157.689C11.6724 157.336 11.5363 156.981 11.2642 156.622C10.992 156.263 10.5931 155.874 10.0674 155.453H4.23193C4.18245 155.453 4.13916 155.441 4.10205 155.416C4.07113 155.391 4.04329 155.351 4.01855 155.295C3.99382 155.24 3.97526 155.162 3.96289 155.063C3.95052 154.965 3.94434 154.838 3.94434 154.683C3.94434 154.535 3.95052 154.411 3.96289 154.312C3.97526 154.213 3.99382 154.133 4.01855 154.071C4.04329 154.015 4.07113 153.975 4.10205 153.95C4.13916 153.932 4.18245 153.922 4.23193 153.922H12.5815C12.631 153.922 12.6712 153.932 12.7021 153.95C12.7393 153.969 12.7702 154.006 12.7949 154.062C12.8258 154.117 12.8444 154.188 12.8506 154.275C12.863 154.361 12.8691 154.476 12.8691 154.618C12.8691 154.754 12.863 154.866 12.8506 154.952C12.8444 155.045 12.8258 155.116 12.7949 155.166C12.7702 155.215 12.7393 155.249 12.7021 155.268C12.6712 155.292 12.631 155.305 12.5815 155.305H11.4775C12.0033 155.775 12.3867 156.229 12.6279 156.668C12.8753 157.114 12.999 157.562 12.999 158.014C12.999 158.36 12.9588 158.669 12.8784 158.941C12.798 159.22 12.6836 159.464 12.5352 159.674C12.3929 159.885 12.2197 160.064 12.0156 160.212C11.8177 160.361 11.5951 160.485 11.3477 160.583C11.6507 160.862 11.9074 161.125 12.1177 161.372C12.328 161.626 12.498 161.867 12.6279 162.096C12.7578 162.331 12.8506 162.556 12.9063 162.773C12.9681 162.996 12.999 163.218 12.999 163.441C12.999 163.979 12.9032 164.431 12.7114 164.795C12.5259 165.16 12.2754 165.454 11.96 165.677C11.6445 165.906 11.2734 166.066 10.8467 166.159C10.4261 166.258 9.98079 166.308 9.51074 166.308H4.23193Z" fill="#07CFF6"/>
</svg>
