<svg width="25" height="25" viewBox="0 0 25 25" fill="none" xmlns="http://www.w3.org/2000/svg">
<path d="M9.76805 17.0833H7.54583V9.8625H9.76805V17.0833ZM8.65694 8.93611C7.85555 8.93611 7.45417 8.56528 7.45417 7.825C7.45168 7.67644 7.48143 7.52911 7.54138 7.39315C7.60132 7.2572 7.69003 7.13586 7.80139 7.0375C8.03299 6.82143 8.34032 6.70518 8.65694 6.71389C9.45833 6.71389 9.85972 7.08611 9.85972 7.82639C9.85972 8.56667 9.45972 8.93611 8.65694 8.93611ZM18.0097 17.0833H15.7417V13.0556C15.7417 12.0069 15.3694 11.4819 14.6292 11.4819C14.0431 11.4819 13.6583 11.775 13.4708 12.3611C13.4111 12.4542 13.3792 12.6403 13.3792 12.9167V17.0833H11.1111V12.1764C11.1111 11.0653 11.0944 10.2944 11.0653 9.8625H13.0097L13.1486 10.8333C13.6583 10.0611 14.3986 9.67639 15.4167 9.67639C16.1903 9.67639 16.8139 9.94583 17.2917 10.4861C17.7722 11.0264 18.0111 11.8056 18.0111 12.825V17.0833H18.0097ZM12.5 25C5.60694 25 0 19.3931 0 12.5C0 5.60694 5.60694 0 12.5 0C19.3931 0 25 5.60694 25 12.5C25 19.3931 19.3931 25 12.5 25ZM12.5 2.77778C7.14028 2.77778 2.77778 7.14028 2.77778 12.5C2.77778 17.8597 7.14028 22.2222 12.5 22.2222C17.8597 22.2222 22.2222 17.8597 22.2222 12.5C22.2222 7.14028 17.8597 2.77778 12.5 2.77778Z" fill="#07CFF6"/>
</svg>
