<svg width="25" height="25" viewBox="0 0 25 25" fill="none" xmlns="http://www.w3.org/2000/svg">
<path d="M12.5 0C9.18479 0 6.00537 1.31696 3.66117 3.66117C1.31696 6.00537 0 9.18479 0 12.5C0 15.8152 1.31696 18.9946 3.66117 21.3388C6.00537 23.683 9.18479 25 12.5 25C15.8152 25 18.9946 23.683 21.3388 21.3388C23.683 18.9946 25 15.8152 25 12.5C25 9.18479 23.683 6.00537 21.3388 3.66117C18.9946 1.31696 15.8152 0 12.5 0ZM15.7955 22.6909H15.6977C15.6249 22.6948 15.5521 22.6839 15.4837 22.6587C15.4153 22.6335 15.3528 22.5945 15.3 22.5443C15.2512 22.4928 15.2131 22.4322 15.1879 22.3659C15.1627 22.2995 15.151 22.2289 15.1534 22.158V20.692C15.1602 20.2057 15.1648 19.7148 15.1648 19.2182C15.1629 18.8553 15.1097 18.4945 15.0068 18.1466C14.9099 17.7952 14.7143 17.4789 14.4432 17.2352C15.1692 17.1651 15.8828 17.0001 16.5659 16.7443C17.1422 16.5254 17.6635 16.1829 18.0932 15.7409C18.517 15.2955 18.8318 14.7591 19.0136 14.1716C19.2364 13.4534 19.342 12.7057 19.3273 11.9534C19.3306 11.4286 19.2382 10.9076 19.0545 10.4159C18.869 9.92046 18.5884 9.46609 18.2284 9.07841C18.3057 8.88295 18.3625 8.67955 18.3966 8.47159C18.4758 7.99541 18.4619 7.50839 18.3557 7.0375C18.2988 6.76696 18.2217 6.50106 18.125 6.24205C18.0881 6.22778 18.0487 6.22084 18.0091 6.22159H17.8955C17.6568 6.22386 17.4193 6.26364 17.1932 6.3375C16.9432 6.41023 16.6977 6.50114 16.4602 6.60909C16.2241 6.7148 15.9941 6.83393 15.7716 6.96591C15.5689 7.08545 15.3699 7.21127 15.175 7.34318C13.4228 6.85487 11.5704 6.85487 9.81818 7.34318C9.62251 7.21245 9.42358 7.08665 9.22159 6.96591C8.99594 6.83246 8.76215 6.71329 8.52159 6.60909C8.28486 6.49833 8.03932 6.40748 7.7875 6.3375C7.56485 6.26385 7.33222 6.22476 7.09773 6.22159H6.98409C6.94518 6.22141 6.90659 6.22874 6.87045 6.24318C6.77178 6.50214 6.69091 6.76753 6.62841 7.0375C6.52984 7.50955 6.51944 7.99576 6.59773 8.47159C6.63182 8.67955 6.6875 8.88295 6.76477 9.07841C6.40511 9.46612 6.12484 9.9205 5.93977 10.4159C5.75611 10.9076 5.66369 11.4286 5.66705 11.9534C5.65201 12.7003 5.754 13.4449 5.96932 14.1602C6.15909 14.7477 6.47273 15.2875 6.89091 15.7409C7.32273 16.1795 7.84318 16.5216 8.41818 16.7443C9.09773 17.0057 9.81023 17.1727 10.5352 17.2409C10.333 17.4239 10.1716 17.65 10.0648 17.9C9.9625 18.1489 9.89091 18.4091 9.85568 18.675C9.47356 18.8582 9.05558 18.9544 8.63182 18.9568C8.23826 18.9722 7.84996 18.8624 7.52273 18.6432C7.20834 18.4106 6.94206 18.1192 6.73864 17.7852C6.64767 17.6452 6.54625 17.5122 6.43523 17.3875C6.31794 17.2567 6.18858 17.1372 6.04886 17.0307C5.91043 16.9274 5.75868 16.8433 5.59773 16.7807C5.43977 16.7112 5.26914 16.6753 5.09659 16.675C5.05474 16.6763 5.013 16.6801 4.97159 16.6864C4.91477 16.6864 4.85795 16.6932 4.80341 16.7068C4.75462 16.7194 4.70846 16.7406 4.66705 16.7693C4.64873 16.7798 4.63344 16.7948 4.62269 16.8129C4.61193 16.831 4.60607 16.8517 4.60568 16.8727C4.61023 16.9229 4.62571 16.9715 4.65104 17.0151C4.67636 17.0587 4.71091 17.0962 4.75227 17.125C4.84773 17.2023 4.92841 17.2614 4.99318 17.3034L5.02273 17.325C5.1625 17.4318 5.29545 17.5477 5.42045 17.6716C5.53864 17.7739 5.64432 17.8898 5.73409 18.0159C5.82841 18.1386 5.90909 18.2727 5.975 18.4125C6.05114 18.5523 6.13182 18.7125 6.21591 18.8943C6.41136 19.3875 6.75909 19.8057 7.20909 20.0875C7.68068 20.3409 8.21136 20.467 8.74659 20.4534C8.92841 20.4534 9.11023 20.442 9.29205 20.4216C9.46932 20.3932 9.64773 20.3625 9.82614 20.3273V22.1432C9.82915 22.2162 9.81678 22.2891 9.7898 22.3571C9.76283 22.4251 9.72187 22.4866 9.66958 22.5377C9.61729 22.5888 9.55484 22.6284 9.48627 22.6538C9.41771 22.6792 9.34456 22.6899 9.27159 22.6852H9.20682C6.77796 21.9005 4.70906 20.2744 3.37268 18.0997C2.0363 15.925 1.52024 13.3447 1.91744 10.8233C2.31465 8.30189 3.599 6.00515 5.53923 4.34664C7.47947 2.68813 9.94809 1.77683 12.5006 1.77683C15.0531 1.77683 17.5217 2.68813 19.4619 4.34664C21.4021 6.00515 22.6865 8.30189 23.0837 10.8233C23.4809 13.3447 22.9648 15.925 21.6285 18.0997C20.2921 20.2744 18.2232 21.9005 15.7943 22.6852V22.6909H15.7955Z" fill="#07CFF6"/>
</svg>
