<svg width="25" height="25" viewBox="0 0 25 25" fill="none" xmlns="http://www.w3.org/2000/svg">
<path d="M0.733696 12.6991L0.648346 12.6581C0.459889 12.551 0.30789 12.3891 0.2122 12.1936C0.0750624 11.9536 0.00195735 11.6819 0 11.405L0.0203587 11.2694C0.0203587 11.0596 0.0736045 10.8711 0.167568 10.6905L0.252918 10.5344C0.293635 10.4484 0.354711 10.3743 0.407957 10.3041C0.43689 10.2693 0.45688 10.2278 0.466165 10.1834C0.47545 10.139 0.473746 10.093 0.461203 10.0494L0.407957 9.88061C0.344452 9.67706 0.310174 9.4654 0.306164 9.25208L0.273276 9.12511C0.273276 8.89089 0.334352 8.66062 0.481562 8.49264L0.58727 8.357C0.660875 8.25054 0.775197 8.18824 0.901264 8.14723C1.00306 8.11411 1.07666 8.00764 1.08919 7.88462L1.10955 7.52737C1.10955 7.24426 1.24423 6.98086 1.45251 6.78765L1.70543 6.59838C1.75476 6.5487 1.80723 6.49586 1.84794 6.40911C1.90119 6.3476 1.91293 6.26085 1.90119 6.19934C1.88083 6.09682 1.90119 6.0637 1.95444 6.05108C2.122 6.11654 2.22771 6.09603 2.30132 6.01007L2.436 5.83342L2.81107 5.41072C2.86554 5.35338 2.90224 5.28131 2.91671 5.2033C2.93117 5.1253 2.92276 5.04474 2.8925 4.97146L2.77035 4.69624C2.74999 4.63472 2.77035 4.56059 2.8236 4.54009C2.95828 4.54009 3.05224 4.58977 3.09296 4.67573L3.13367 4.74986C3.19866 4.87683 3.34587 4.93913 3.44767 4.8855C3.63841 4.81599 3.83993 4.78128 4.04277 4.78298H4.37712C4.60576 4.78298 4.79291 4.6229 4.83832 4.38079C4.87904 4.089 4.98083 3.85478 5.12804 3.69864C5.287 3.51804 5.4624 3.3824 5.67068 3.27594C5.94396 3.13241 6.11153 2.91869 6.16399 2.64741C6.23759 2.31067 6.41299 2.06856 6.65338 1.91242L7.44893 1.46054L7.67758 1.32095C7.81226 1.23894 7.93833 1.13169 8.04482 1.00472L8.2531 0.753938C8.34255 0.653494 8.45851 0.58074 8.58746 0.544166C8.68925 0.511044 8.83646 0.49054 8.96253 0.503158L9.37831 0.531548C9.5866 0.531548 9.75338 0.585174 9.92095 0.658515L10.0267 0.712141C10.1324 0.75315 10.2349 0.732646 10.2874 0.658515L10.3814 0.604889L10.83 0.132508C10.876 0.0823378 10.9336 0.0444665 10.9977 0.0223028C11.0618 0.000139119 11.1304 -0.00562125 11.1973 0.00554026C11.332 0.0260443 11.4666 0.0796703 11.5927 0.145126C11.7806 0.247646 11.9357 0.288654 12.115 0.288654H12.2207C12.4493 0.288654 12.6772 0.321776 12.9098 0.374613L13.0648 0.415621C13.1409 0.434454 13.2208 0.430452 13.2947 0.404109C13.3686 0.377765 13.4332 0.33023 13.4806 0.267361C13.4879 0.255069 13.4979 0.244589 13.5098 0.236689C13.5217 0.228788 13.5352 0.223668 13.5493 0.221702C13.5634 0.219736 13.5778 0.220975 13.5914 0.225327C13.605 0.22968 13.6174 0.237036 13.6278 0.246857C13.6607 0.267361 13.6685 0.287865 13.681 0.320987C13.7014 0.530759 13.8283 0.690849 13.995 0.739743L14.1626 0.793369C14.338 0.846995 14.497 0.962133 14.5988 1.1096C14.7045 1.26575 14.8313 1.42584 14.9738 1.52836L15.0795 1.63482C15.1314 1.68546 15.1938 1.7239 15.2621 1.74735C15.3305 1.77081 15.4032 1.7787 15.475 1.77047H16.0904C16.3433 1.77047 16.5837 1.81542 16.8249 1.91873C17.0535 2.02519 17.2939 2.04569 17.51 1.95973C17.7426 1.88955 17.983 1.85721 18.2234 1.88955L18.6721 1.95973C18.8803 1.98418 19.0878 2.0867 19.2147 2.24758L19.2679 2.29726C19.3697 2.40373 19.4762 2.53937 19.578 2.68763C19.612 2.75229 19.6632 2.80616 19.7258 2.84321C19.7885 2.88026 19.8601 2.89902 19.9327 2.8974H20.5811C20.74 2.8974 20.8951 2.93052 21.0219 3.00386C21.1566 3.10638 21.2709 3.21364 21.3766 3.3201L21.4784 3.45574C21.6045 3.604 21.6664 3.80116 21.6577 4.01408C21.6577 4.18285 21.7838 4.32638 21.9475 4.32638L22.1597 4.35082C22.3069 4.35082 22.429 4.45334 22.5026 4.58898L22.6083 4.8027L22.8777 5.41072C22.917 5.50397 22.9323 5.60567 22.9223 5.70646C22.9223 5.80898 22.9505 5.89572 23.0241 5.93673L23.1298 6.01086C23.1972 6.06164 23.2501 6.12944 23.2831 6.2074C23.3161 6.28537 23.328 6.37073 23.3178 6.45485L23.2442 6.94774L23.2238 7.15751C23.2152 7.21674 23.2224 7.27719 23.2445 7.33274C23.2667 7.38828 23.303 7.43693 23.3499 7.47375C23.5049 7.57627 23.5785 7.71585 23.5863 7.872V8.08177C23.5863 8.18823 23.566 8.31599 23.4845 8.39801C23.4149 8.48839 23.3776 8.59984 23.3788 8.71424L23.4117 8.95635C23.4117 9.12511 23.5135 9.27258 23.62 9.3751C23.6895 9.4283 23.7477 9.495 23.7912 9.57127C23.8346 9.64754 23.8624 9.73181 23.8729 9.8191C23.9136 10.0817 23.9223 10.2915 23.9223 10.5012V10.7434C23.9223 10.8293 23.9223 10.9121 23.9551 10.9941C23.9784 11.0714 24.0256 11.139 24.0898 11.1873L24.2981 11.3435C24.5103 11.4791 24.6567 11.6597 24.739 11.9018C24.8447 12.1321 24.8736 12.3742 24.8736 12.6163V12.6983C24.8736 12.8876 24.8533 13.0887 24.7922 13.2654C24.7393 13.4385 24.7493 13.6249 24.8204 13.7914C24.9057 13.9396 24.959 14.1076 24.9793 14.2882C25.0201 14.498 24.9997 14.7069 24.9261 14.8757L24.9057 14.9498C24.8515 15.0787 24.7694 15.1938 24.6653 15.2866C24.5596 15.393 24.4571 15.4553 24.396 15.5287C24.331 15.5902 24.2903 15.6974 24.3224 15.7913L24.3506 15.9396C24.4038 16.1493 24.4038 16.3583 24.3506 16.5476V16.6335C24.3099 16.7897 24.2488 16.9253 24.183 17.0523C24.1126 17.186 24.0048 17.296 23.8729 17.3685L23.714 17.471C23.6755 17.4967 23.6439 17.5314 23.6219 17.5723C23.5999 17.6131 23.5882 17.6588 23.5879 17.7053C23.5886 17.8053 23.5524 17.902 23.4861 17.9766L23.3272 18.1903C23.2254 18.3259 23.0907 18.441 22.9435 18.5026C22.811 18.5956 22.688 18.7015 22.5762 18.8188C22.4715 18.942 22.3936 19.086 22.3476 19.2415C22.3333 19.3236 22.2907 19.3979 22.2272 19.4513C22.1637 19.5047 22.0834 19.5338 22.0007 19.5333H21.4377C21.2905 19.5333 21.1566 19.6397 21.0947 19.7675C21.0358 19.9085 20.9546 20.039 20.8544 20.1539C20.7537 20.2602 20.6808 20.39 20.6422 20.5317C20.6218 20.6586 20.52 20.7454 20.4135 20.7004C20.3546 20.6733 20.2878 20.6692 20.226 20.6889C20.1642 20.7085 20.1119 20.7506 20.0792 20.8069C19.9736 20.9915 19.8446 21.1614 19.6955 21.3124L19.6219 21.3739C19.4833 21.4804 19.3079 21.5632 19.1489 21.5632C18.961 21.5632 18.8678 21.6491 18.8388 21.773C18.8059 21.891 18.7841 22.012 18.7739 22.1341C18.7515 22.2524 18.7174 22.3681 18.6721 22.4796L18.6188 22.5411C18.5131 22.7012 18.4309 22.8573 18.3252 22.9929L18.2845 23.0584C18.1498 23.2351 17.9705 23.3746 17.7622 23.4243C17.5402 23.4991 17.3072 23.5351 17.0731 23.5308H16.9259C16.869 23.5341 16.8138 23.5512 16.7649 23.5806C16.7159 23.6099 16.6748 23.6508 16.6448 23.6996L16.5837 23.806L16.5187 23.929L16.3841 24.1633C16.3345 24.2543 16.2675 24.3345 16.187 24.3994C16.1065 24.4642 16.0141 24.5123 15.915 24.541C15.6964 24.5948 15.471 24.6155 15.2463 24.6025L15.0787 24.582C14.9315 24.582 14.7976 24.541 14.663 24.4755C14.5573 24.4345 14.41 24.4755 14.349 24.582C14.2597 24.7117 14.1307 24.8084 13.9817 24.8572L13.6677 24.9598C13.452 25.0134 13.2265 25.0134 13.0108 24.9598L12.8432 24.9061C12.738 24.8987 12.6367 24.8633 12.5496 24.8036C12.4545 24.7524 12.3469 24.7297 12.2395 24.7382L12.1009 24.7626C11.8926 24.7831 11.7055 24.7626 11.5175 24.709L11.2364 24.6435C11.1067 24.6027 10.9954 24.5169 10.9224 24.4014C10.8901 24.3441 10.8448 24.2953 10.7903 24.2588C10.7357 24.2224 10.6735 24.1994 10.6084 24.1916H10.2741C10.0658 24.1633 9.87867 24.0891 9.75182 23.929L9.33603 23.5308L9.18882 23.4038L8.96018 23.2351L8.8255 23.1325C8.66275 23.0193 8.47525 22.9473 8.27894 22.9228L7.65487 22.8163C7.58988 22.8163 7.54916 22.7958 7.4873 22.7832L7.24691 22.7296C7.1412 22.709 7.03863 22.627 6.96581 22.5198C6.90473 22.4173 6.78649 22.3715 6.6847 22.4173C6.47642 22.4993 6.30963 22.5198 6.14206 22.5529H5.99485C5.72915 22.576 5.46205 22.5293 5.21966 22.4173C4.97065 22.3108 4.80387 22.1546 4.64883 21.9528C4.58574 21.8597 4.50495 21.7803 4.41112 21.7189C4.3173 21.6576 4.21232 21.6157 4.10228 21.5955L3.81256 21.534C3.59577 21.4888 3.38954 21.4024 3.20493 21.2793C2.99664 21.131 2.89094 20.9962 2.8095 20.8274C2.72473 20.6643 2.6746 20.4851 2.66229 20.3014V20.2194C2.64193 20.0057 2.49472 19.8172 2.29897 19.7675C2.08693 19.7052 1.89084 19.5973 1.72423 19.4513C1.65048 19.381 1.5918 19.2962 1.55181 19.2022C1.51181 19.1083 1.49135 19.007 1.49167 18.9048L1.51594 18.4403C1.51594 18.2597 1.46269 18.1035 1.33663 17.9884C1.21056 17.8614 1.12834 17.7053 1.12834 17.5365L1.09545 17.1588C1.07044 16.8819 1.02543 16.6073 0.960774 16.337C0.899698 16.0949 0.993661 15.852 1.18942 15.7377L1.26302 15.684C1.31581 15.6483 1.35369 15.5942 1.36943 15.5321C1.38517 15.47 1.37767 15.4042 1.34837 15.3473L1.26302 15.2448C1.17857 15.1482 1.07024 15.0758 0.949029 15.035C0.867594 15.0106 0.847235 14.9285 0.847235 14.8749L0.949029 14.748C0.977781 14.7126 0.993492 14.6683 0.993492 14.6226C0.993492 14.5768 0.977781 14.5325 0.949029 14.4972C0.873003 14.4162 0.825656 14.3123 0.814348 14.2014L0.793989 13.4664C0.793989 13.3182 0.814348 13.1707 0.855065 13.0272C0.899698 12.9002 0.855065 12.752 0.732913 12.6904L0.733696 12.6991ZM11.0681 11.3104C11.1417 11.2362 11.1292 11.1006 11.0681 11.0478C10.9699 10.9706 10.8881 10.8743 10.8277 10.7646L10.722 10.5959C10.6514 10.4633 10.5605 10.3427 10.4526 10.2386L10.4323 10.2181C10.3284 10.1334 10.246 10.025 10.1919 9.9019C10.1657 9.85337 10.152 9.79902 10.152 9.74378C10.152 9.68855 10.1657 9.6342 10.1919 9.58566L10.253 9.48314C10.3199 9.36849 10.3563 9.23838 10.3587 9.1054V9.06045C10.3533 8.94841 10.3167 8.84016 10.253 8.74815C10.2069 8.65424 10.1727 8.55489 10.1512 8.45242V8.39091C10.136 8.32708 10.1354 8.2606 10.1495 8.19651C10.1636 8.13243 10.192 8.07242 10.2326 8.02105C10.3179 7.88541 10.3798 7.75844 10.4119 7.60229V7.57785C10.4305 7.52056 10.4361 7.45981 10.4284 7.40005C10.4207 7.34029 10.3998 7.28302 10.3673 7.23243C10.3356 7.18309 10.3154 7.12713 10.3084 7.06879C10.3013 7.01045 10.3075 6.95125 10.3266 6.89569L10.4002 6.68592C10.4612 6.49665 10.5591 6.32867 10.6813 6.18041L10.8285 6.02427L10.9342 5.8973L10.9953 5.83579C11.0262 5.80158 11.0449 5.75802 11.0486 5.71193C11.0523 5.66583 11.0407 5.61981 11.0156 5.58107C10.9604 5.48563 10.9388 5.37416 10.9545 5.26483L10.9749 5.11657C11.0078 4.9068 11.0806 4.69781 11.2153 4.52905L11.256 4.48804C11.4111 4.27827 11.6107 4.13868 11.8394 4.06534L12.1252 3.96282C12.2473 3.92181 12.3335 3.78223 12.3335 3.64659C12.3335 3.47782 12.3867 3.33035 12.4799 3.19471L12.5292 3.14108C12.6349 2.96443 12.7618 2.78384 12.8432 2.59457L12.9168 2.45893C12.9368 2.42692 12.9481 2.39023 12.9497 2.35247C12.9497 2.17582 12.844 2.01573 12.6764 2.00705L12.2199 1.97393C11.9592 1.95343 11.6976 1.97393 11.4447 1.97393L10.5599 2.08039C10.4213 2.08039 10.3195 2.18291 10.307 2.33117C10.3054 2.40107 10.2827 2.46881 10.2418 2.52533C10.2009 2.58185 10.1439 2.62444 10.0783 2.64741L9.70327 2.74993L9.59756 2.78305L9.28357 2.88951C9.16873 2.92744 9.06298 2.98902 8.97307 3.07035C8.88315 3.15168 8.81103 3.25096 8.76129 3.3619L8.67985 3.49754C8.57234 3.73041 8.39737 3.92506 8.17793 4.05588C7.96965 4.19152 7.86394 4.41312 7.84358 4.6639V4.77037C7.82322 4.98014 7.75823 5.18912 7.6353 5.33738L7.58205 5.42334C7.54065 5.47178 7.51368 5.53102 7.50426 5.59423C7.49484 5.65744 7.50335 5.72204 7.5288 5.78059C7.58205 5.90361 7.61415 6.0432 7.60241 6.17884V6.73718C7.6008 6.8038 7.58034 6.86857 7.54345 6.92389C7.50655 6.97921 7.45475 7.02278 7.39412 7.04947C7.32496 7.07466 7.26308 7.11674 7.21402 7.17193C7.16496 7.22712 7.13026 7.2937 7.11302 7.36571L7.05977 7.57548C7.03756 7.67769 7.04544 7.78421 7.08243 7.88198C7.11943 7.97975 7.18394 8.06453 7.26805 8.12593C7.43562 8.24896 7.54133 8.43823 7.58205 8.67245V8.86171C7.61494 9.07149 7.72926 9.28047 7.9164 9.38772C8.10433 9.51469 8.25075 9.70396 8.33219 9.91373L8.38544 10.0825C8.42072 10.1865 8.48481 10.2781 8.57014 10.3466C8.65547 10.4151 8.75848 10.4575 8.867 10.4689H8.92807C9.116 10.4689 9.28278 10.5754 9.38927 10.7441C9.49107 10.9129 9.65864 11.0273 9.84578 11.0604L10.1394 11.1424C10.3187 11.196 10.4863 11.2907 10.621 11.4255L10.6413 11.45C10.6967 11.4911 10.7655 11.5094 10.8338 11.501C10.9021 11.4927 10.9646 11.4583 11.0086 11.405L11.0822 11.323L11.0681 11.3104ZM12.2583 10.3451C12.3601 10.4066 12.4666 10.3735 12.5073 10.2796L12.5402 10.23C12.6138 10.0817 12.7077 9.93423 12.8095 9.80727L13.0217 9.49103C13.0499 9.49103 13.0625 9.47053 13.0711 9.45002L13.324 9.11328C13.4297 9.01076 13.5526 8.93663 13.6991 8.93663C13.7661 8.93697 13.8318 8.91721 13.8877 8.87985C13.9437 8.8425 13.9873 8.78925 14.013 8.72686C14.0538 8.5786 14.1148 8.43902 14.2417 8.32467L14.2949 8.26315C14.4006 8.15669 14.5032 8.10306 14.6089 8.05338C14.7436 8.03288 14.8697 8.00843 14.9965 8.00843H15.3066C15.4327 8.00843 15.5392 7.95875 15.6002 7.85228C15.6613 7.74582 15.7553 7.67563 15.861 7.62201L15.9667 7.57706C16.1343 7.50687 16.3214 7.45403 16.5093 7.43353L16.7176 7.41302C16.8437 7.41302 16.9784 7.41302 17.1052 7.48321C17.207 7.55734 17.3456 7.54867 17.4482 7.46271L17.5218 7.4217C17.6768 7.31524 17.8561 7.23243 18.0441 7.21193H18.0644C18.2649 7.17645 18.4689 7.16533 18.6721 7.1788H18.7739C18.9821 7.21193 19.1615 7.28527 19.2961 7.44141L19.329 7.48242C19.4347 7.58889 19.5984 7.67563 19.7448 7.67563H19.9241C19.9774 7.67563 20.0259 7.65119 20.0588 7.6015C20.0942 7.56377 20.1421 7.54047 20.1935 7.53605H20.2992C20.4464 7.53605 20.5803 7.57706 20.715 7.62201L20.8943 7.69614C21.0619 7.74582 21.2373 7.79866 21.4166 7.81916H21.5426C21.6241 7.81916 21.6773 7.76948 21.6773 7.69614C21.6812 7.59251 21.6557 7.48992 21.6037 7.40041L21.5301 7.23164C21.4487 7.096 21.3829 6.94853 21.3218 6.81289L21.3015 6.75926C21.2753 6.71073 21.2616 6.65637 21.2616 6.60114C21.2616 6.54591 21.2753 6.49156 21.3015 6.44302V6.3894C21.3118 6.34748 21.3068 6.30321 21.2874 6.26469C21.268 6.22617 21.2355 6.19597 21.1958 6.17963H21.1143C20.9494 6.12984 20.8031 6.03119 20.6946 5.89651L20.5928 5.79005C20.4871 5.68753 20.4253 5.52744 20.3806 5.37129C20.3313 5.23565 20.2178 5.12919 20.0705 5.12919H19.6297C19.5532 5.11835 19.4796 5.09244 19.4131 5.05292C19.3466 5.01341 19.2885 4.96107 19.2421 4.89891L19.2014 4.84529C19.126 4.73544 19.0669 4.61508 19.026 4.48804C18.9727 4.38158 18.8584 4.31928 18.7527 4.3524L18.6266 4.39341C18.4184 4.46754 18.2109 4.49593 18.0026 4.47542L17.835 4.45492C17.6557 4.45492 17.4881 4.38079 17.3534 4.27827L17.2477 4.20414C17.1683 4.14246 17.0805 4.09253 16.987 4.05588C16.8852 4.01487 16.7991 4.03538 16.738 4.10951L16.6847 4.17102C16.5788 4.28202 16.4401 4.3556 16.2893 4.38079L15.7263 4.41391C15.6198 4.41793 15.519 4.46346 15.4452 4.54088C15.3644 4.6136 15.2657 4.66316 15.1594 4.68441H15.139C15.0372 4.68441 14.9308 4.75854 14.829 4.83267V4.85317C14.7795 4.90385 14.7205 4.9441 14.6554 4.97159C14.5904 4.99907 14.5205 5.01324 14.45 5.01326L14.4093 5.03376C14.2832 5.03376 14.1603 5.03376 14.0342 5.06689H13.9081C13.7327 5.09528 13.5941 5.24354 13.5534 5.43281L13.5127 5.67491C13.4792 5.83982 13.4078 5.99456 13.3044 6.12679C13.1987 6.25376 13.0719 6.33656 12.9168 6.33656H12.7414C12.6357 6.36101 12.5292 6.47615 12.5496 6.59917C12.5738 6.77976 12.5496 6.93591 12.5214 7.096L12.4807 7.27265C12.4627 7.34748 12.4275 7.41697 12.3778 7.47549C12.3281 7.534 12.2655 7.57988 12.1949 7.60939L12.1338 7.64251H12.1134C12.0523 7.68352 12.0077 7.77815 12.0602 7.85228C12.1204 7.94591 12.1464 8.0577 12.1338 8.16852L12.1009 8.50526C12.0942 8.62682 12.0593 8.74511 11.9991 8.85067C11.9691 8.89722 11.9515 8.95074 11.9479 9.00611C11.9444 9.06149 11.955 9.11685 11.9787 9.16691L12.0805 9.39719C12.1342 9.50098 12.1459 9.6216 12.1134 9.73392C12.0777 9.83522 12.0638 9.94303 12.0727 10.0502C12.0727 10.1566 12.1338 10.2599 12.2199 10.3049L12.2583 10.3451ZM20.5051 17.9482C20.6108 18.0507 20.7659 18.0917 20.8927 18.0097L21.101 17.874C21.2108 17.7979 21.2914 17.6864 21.3297 17.5578V17.5373L21.4354 17.2211L21.4964 17.1146L21.5411 17.0121L21.5818 16.9379C21.6009 16.8941 21.6295 16.8551 21.6656 16.8238C21.7016 16.7926 21.7442 16.7698 21.7901 16.7574L21.8308 16.7368C21.9161 16.7163 21.9694 16.6343 21.9694 16.5476C21.9694 16.4451 22.0187 16.3583 22.0712 16.285L22.1565 16.2108L22.3648 15.9396V15.9191C22.4257 15.8327 22.4686 15.7347 22.4909 15.6312C22.5082 15.525 22.4926 15.4159 22.4462 15.3189L22.4259 15.274C22.3893 15.1873 22.3646 15.096 22.3523 15.0027L22.3241 14.7069L22.2912 14.3907C22.2912 14.2882 22.3319 14.1809 22.3969 14.0784C22.4666 13.9925 22.5191 13.8852 22.5645 13.7827V13.7417L22.5848 13.7212C22.6052 13.6147 22.552 13.5075 22.4588 13.5075C22.3531 13.4578 22.2505 13.3718 22.2184 13.2448L22.1855 13.1833C22.1343 12.9986 22.1069 12.8081 22.1041 12.6163L22.1244 12.0903V12.0572C22.1236 11.9736 22.0903 11.8936 22.0316 11.8345C21.9728 11.7754 21.8935 11.7418 21.8104 11.741H21.7901C21.6933 11.7448 21.5968 11.7281 21.5068 11.692C21.4168 11.6558 21.3354 11.601 21.2678 11.5312L21.1864 11.4247L20.9742 11.1866L20.7048 10.8703C20.6041 10.7239 20.4878 10.589 20.3579 10.4681C20.2561 10.3656 20.0972 10.2584 19.9421 10.2379L19.7338 10.2047C19.6081 10.1786 19.4879 10.13 19.3791 10.0612C19.2938 9.99575 19.1708 10.0162 19.0855 10.1022L18.9508 10.2505L18.8858 10.2915C18.8122 10.312 18.7433 10.271 18.7104 10.185C18.6663 10.0545 18.6736 9.91198 18.7308 9.78676V9.72525C18.7308 9.65112 18.6697 9.59828 18.6047 9.61879H18.4372C18.2484 9.6258 18.0605 9.59079 17.8867 9.51627L17.781 9.47132C17.6744 9.41797 17.557 9.38992 17.438 9.3893C17.3278 9.38683 17.2191 9.41522 17.124 9.47132L17.0833 9.50444C16.9572 9.58512 16.8127 9.63183 16.6636 9.64008H16.3206C16.1692 9.63852 16.0216 9.68761 15.9009 9.77966C15.7667 9.86078 15.6189 9.91638 15.4648 9.9437L15.1837 9.98865C15.0457 10.0179 14.9161 10.0783 14.8047 10.1653C14.7029 10.2718 14.5557 10.3341 14.421 10.3751L14.3678 10.3995C14.1965 10.4502 14.049 10.561 13.952 10.7118L13.8259 10.8388C13.7901 10.8875 13.7708 10.9465 13.7708 11.0071C13.7708 11.0678 13.7901 11.1268 13.8259 11.1755C13.887 11.282 14.0138 11.3112 14.1399 11.282L14.2949 11.2165C14.3764 11.1881 14.4743 11.2165 14.5439 11.2575C14.5791 11.2861 14.6196 11.3074 14.663 11.3202C14.7064 11.3329 14.7519 11.3368 14.7969 11.3317L15.0576 11.3033C15.2048 11.3033 15.3512 11.3033 15.4938 11.3443C15.6527 11.3979 15.7874 11.4507 15.9135 11.5541C16.0321 11.6511 16.177 11.7099 16.3292 11.7228C16.4882 11.7433 16.6432 11.7764 16.7904 11.8293L16.8922 11.8498C16.9979 11.8829 17.0841 11.9523 17.1452 12.0596C17.1984 12.1455 17.247 12.2693 17.247 12.3758V12.4089C17.247 12.5319 17.3527 12.6187 17.4592 12.6187H17.5202C17.6878 12.6187 17.8671 12.6392 18.0425 12.6928L18.1161 12.7212C18.2286 12.7631 18.3264 12.8374 18.3972 12.9349C18.4826 13.0374 18.5319 13.1447 18.5648 13.2472L18.5977 13.3955C18.6259 13.5556 18.6384 13.7117 18.6384 13.8805V13.9341C18.6384 14.0366 18.712 14.1439 18.8263 14.1849C18.932 14.2054 19.055 14.2503 19.1732 14.3118L19.2225 14.3324C19.3611 14.4144 19.4958 14.5216 19.5976 14.6486L19.6508 14.7227C19.7894 14.8789 19.8591 15.08 19.8591 15.2771V15.3512C19.8591 15.5113 19.8309 15.6675 19.7777 15.8157C19.737 15.9427 19.7777 16.091 19.9124 16.132L19.986 16.1856C20.1449 16.2471 20.2796 16.3623 20.3814 16.4979C20.4871 16.658 20.5286 16.8346 20.5286 17.0239V17.3401C20.5083 17.4466 20.4793 17.5294 20.4268 17.6027C20.3744 17.6761 20.3736 17.7833 20.4268 17.8575L20.4879 17.96L20.5051 17.9482ZM13.8243 12.5635H13.804C13.7593 12.5635 13.739 12.6171 13.7507 12.6699L13.7915 12.8797C13.8322 13.0485 13.8525 13.2165 13.8768 13.3852C13.8972 13.554 13.9786 13.6975 14.1054 13.804H14.1462C14.2228 13.8647 14.2857 13.9412 14.3307 14.0284C14.3756 14.1156 14.4016 14.2114 14.4069 14.3095V14.8355C14.3866 14.938 14.4069 15.0453 14.4719 15.1312L14.5212 15.1809C14.6174 15.3013 14.673 15.4493 14.6802 15.6036L14.7084 16.1824C14.7084 16.3181 14.6269 16.4332 14.5001 16.4537L14.3983 16.4742C14.3247 16.4742 14.2926 16.5602 14.2926 16.6343C14.2926 16.7163 14.3255 16.811 14.3537 16.8969V16.9174C14.3866 17.02 14.3983 17.1272 14.3866 17.2337L14.3458 17.5168C14.3075 17.7224 14.2372 17.9207 14.1376 18.1043L14.0639 18.2313C14.0186 18.3232 13.9438 18.3971 13.8517 18.441C13.8023 18.4615 13.758 18.4928 13.7219 18.5326C13.6859 18.5725 13.6591 18.6198 13.6435 18.6713L13.562 19.0491C13.5028 19.2725 13.4107 19.4856 13.2887 19.6815H13.2684C13.1438 19.8535 12.9838 19.9963 12.7994 20.1003L12.6733 20.1863L12.3593 20.3424C12.3093 20.3656 12.2659 20.4011 12.2331 20.4456C12.2002 20.4901 12.179 20.5422 12.1714 20.5971L12.122 20.9425C12.0892 21.1523 12.0163 21.3329 11.8691 21.4686L11.7344 21.6286L11.5755 21.7848L11.4204 21.9536C11.2944 22.1018 11.1065 22.1633 10.8982 22.1341L10.5231 22.06L10.1762 22.0151H10.0823C10.0415 22.06 10.0329 22.1215 10.0619 22.1838C10.1355 22.3108 10.2498 22.3975 10.3759 22.3975L10.6045 22.4385C10.7102 22.4385 10.8371 22.4922 10.9389 22.5411C11.0446 22.6152 11.1472 22.668 11.2732 22.7012H11.2936C11.4322 22.7548 11.5747 22.7627 11.7133 22.7548L11.8683 22.7303C12.0477 22.7098 12.2152 22.7303 12.3577 22.7958L12.4838 22.8368C12.537 22.8573 12.6185 22.8368 12.6717 22.7832C12.7315 22.7244 12.8023 22.6783 12.88 22.6475L12.9654 22.627C13.1 22.586 13.2347 22.5616 13.3811 22.5616H13.4665C13.5886 22.5616 13.7069 22.586 13.8095 22.6475L13.8502 22.668C13.9238 22.7012 14.0091 22.668 14.0624 22.6065C14.0906 22.5324 14.1642 22.4583 14.2378 22.3968L14.4985 22.2162L14.6661 22.1097L14.7514 22.06C14.8632 21.9878 14.9938 21.9507 15.1265 21.9536L15.5016 21.9204C15.5745 21.9111 15.6432 21.8804 15.699 21.8322C15.7548 21.784 15.7953 21.7203 15.8156 21.6491C15.8563 21.4891 15.9174 21.3329 16.0239 21.1973C16.1296 21.0577 16.2321 20.9425 16.3379 20.84C16.4553 20.741 16.6008 20.6819 16.7536 20.6713H16.839C16.9203 20.6549 16.9931 20.61 17.0446 20.5446C17.0961 20.4791 17.1228 20.3974 17.1201 20.314V19.6074C17.1405 19.5049 17.1812 19.3653 17.2423 19.262L17.4545 18.9458L17.5359 18.8393C17.6009 18.7857 17.6416 18.7163 17.7152 18.6295L17.817 18.4939C17.882 18.3874 17.882 18.2518 17.7966 18.1571C17.6987 18.0458 17.6375 17.9067 17.6212 17.7589V17.7139C17.5965 17.5384 17.6061 17.3597 17.6494 17.1879V17.1383C17.7027 16.9987 17.7755 16.863 17.8616 16.7361C17.9015 16.687 17.9204 16.624 17.9142 16.5608C17.9081 16.4977 17.8773 16.4397 17.8287 16.3993L17.6494 16.2432C17.5061 16.1123 17.4172 15.9318 17.4004 15.7377L17.3801 15.5279C17.3801 15.4624 17.3801 15.3923 17.3597 15.3181L17.3393 15.158C17.326 15.0727 17.2947 14.9912 17.2476 14.9189C17.2005 14.8467 17.1386 14.7855 17.0661 14.7393L16.9925 14.7188C16.8764 14.6456 16.7765 14.5492 16.6988 14.4357C16.6174 14.3292 16.5767 14.1809 16.5438 14.0335L16.5109 13.8568C16.5109 13.7914 16.4702 13.7504 16.4091 13.7212L15.9072 13.5611C15.8015 13.5406 15.6989 13.4586 15.6261 13.3844H15.6057C15.5407 13.2985 15.4382 13.2985 15.3732 13.36L15.2714 13.4664C15.251 13.4996 15.2267 13.5075 15.1978 13.4996C15.1328 13.4996 15.0921 13.4459 15.1124 13.3931C15.1241 13.3108 15.1141 13.2269 15.0833 13.1498C15.0525 13.0726 15.002 13.005 14.937 12.9538L14.7984 12.8474L14.4883 12.6376C14.403 12.6045 14.2761 12.6376 14.2354 12.7401L14.1947 12.8056C14.1947 12.8261 14.1618 12.834 14.154 12.8466C14.1094 12.8466 14.0483 12.8466 14.0483 12.793L14.0154 12.7393C13.9872 12.6778 13.9136 12.6368 13.8478 12.6163L13.8243 12.5635ZM12.5723 13.6147L12.519 13.5611C12.4658 13.5201 12.4133 13.528 12.3601 13.5816C12.285 13.7067 12.2285 13.8422 12.1925 13.9838V14.0043C12.1643 14.1399 12.0375 14.2346 11.9114 14.2141H11.7893C11.7191 14.2155 11.6523 14.2448 11.6034 14.2956C11.5546 14.3465 11.5277 14.4146 11.5285 14.4853C11.5285 14.6746 11.4635 14.867 11.3492 15.0114L11.2881 15.0768C11.1784 15.2101 11.0326 15.3085 10.8684 15.3599L10.787 15.3804C10.7337 15.3941 10.6856 15.4232 10.6486 15.4641C10.6115 15.505 10.5873 15.556 10.5787 15.6107C10.5787 15.7172 10.5137 15.8244 10.4315 15.9064L10.3258 15.9885C10.1997 16.128 10.0118 16.2022 9.82386 16.2227L9.30158 16.2763C9.13401 16.2763 8.9915 16.3788 8.88579 16.5389C8.78008 16.6951 8.62504 16.8015 8.47 16.822L8.23744 16.8425C8.06349 16.8662 7.88676 16.8593 7.71516 16.822L7.61337 16.8015L7.32757 16.7274C7.28363 16.7114 7.23579 16.71 7.191 16.7233C7.14621 16.7367 7.10682 16.7641 7.07856 16.8015L6.97285 16.9372C6.90906 17.012 6.82824 17.0701 6.73729 17.1066C6.64635 17.1432 6.54798 17.157 6.45058 17.1469L5.77326 17.0649C5.66755 17.0649 5.58533 17.0113 5.49215 16.9584C5.38644 16.8969 5.31284 16.8228 5.23923 16.7487L4.97849 16.4324C4.9503 16.4119 4.89705 16.3993 4.8438 16.4119L4.6966 16.4734L4.11324 16.6217C4.00753 16.6548 3.87285 16.6217 3.77027 16.5602C3.66457 16.4742 3.53772 16.4537 3.41165 16.4537H3.27697C3.24639 16.4616 3.21769 16.4755 3.19258 16.4948C3.16747 16.514 3.14647 16.5382 3.13083 16.5658C3.11519 16.5934 3.10523 16.6239 3.10155 16.6554C3.09787 16.687 3.10054 16.719 3.1094 16.7495L3.15012 16.9592C3.183 17.0657 3.17439 17.1895 3.12193 17.296C3.06947 17.4024 3.08121 17.5057 3.15012 17.6122L3.21511 17.6942C3.29654 17.8212 3.42339 17.9284 3.5291 18.031C3.6309 18.1374 3.73739 18.2407 3.81882 18.3803L3.97778 18.6634C4.0122 18.7337 4.06573 18.7926 4.13214 18.8334C4.19854 18.8742 4.27509 18.8951 4.35285 18.8937C4.50789 18.8937 4.66684 18.9473 4.78899 19.0499L5.10299 19.3456C5.18834 19.4197 5.31127 19.4316 5.39662 19.3661L5.44987 19.3456C5.51094 19.3456 5.55166 19.3866 5.55166 19.4521V19.5057C5.55166 19.6413 5.65737 19.7683 5.79205 19.818L6.26108 19.9244C6.42865 19.9781 6.59544 20.0309 6.75439 20.1342H6.83582C6.85692 20.1342 6.87776 20.1296 6.89696 20.1208C6.91617 20.112 6.9333 20.0992 6.94722 20.0833C6.96114 20.0673 6.97153 20.0485 6.97771 20.0282C6.98388 20.0079 6.9857 19.9865 6.98303 19.9654V19.5995C6.98303 19.4931 7.02375 19.3858 7.1091 19.3448L7.16235 19.3243C7.21168 19.3448 7.26414 19.3858 7.24378 19.4308V19.6074C7.24378 19.7431 7.2845 19.87 7.37846 19.9647C7.42291 20.0121 7.48012 20.0455 7.54311 20.0608C7.60611 20.0761 7.67215 20.0725 7.73317 20.0506C7.85924 19.997 7.98609 19.9852 8.12077 19.997L8.50837 20.0175C8.6963 20.038 8.87169 20.0175 9.03065 19.9434C9.21858 19.8819 9.37362 19.7951 9.52004 19.6808L9.58112 19.6397L9.89511 19.3566C9.99171 19.2565 10.1237 19.1989 10.2624 19.1965H10.6781C10.7839 19.1825 10.8822 19.1339 10.9579 19.0583C11.0337 18.9827 11.0829 18.8842 11.0978 18.7778L11.1386 18.568C11.1386 18.4284 11.1996 18.3054 11.2936 18.1982C11.3993 18.0917 11.5019 18.0294 11.6076 17.9884L11.7337 17.9348C11.8221 17.8958 11.9013 17.8383 11.966 17.7661C12.0307 17.6939 12.0793 17.6086 12.1087 17.516L12.1698 17.2613C12.223 17.0515 12.3288 16.8425 12.4838 16.7069L12.5042 16.6824C12.6302 16.5799 12.6514 16.3701 12.5691 16.2227L12.5363 16.1485C12.4997 16.0896 12.4777 16.0227 12.472 15.9534C12.4662 15.8842 12.477 15.8145 12.5034 15.7503C12.5566 15.602 12.6091 15.4751 12.6913 15.3481L12.797 15.1998C12.8377 15.1178 12.8377 14.9901 12.7766 14.9167C12.7104 14.8339 12.6732 14.7313 12.6709 14.6249L12.6506 14.4767V14.1194C12.6661 14.002 12.6549 13.8825 12.6177 13.7701L12.577 13.647L12.5723 13.6147ZM11.0798 12.8135V12.7851C11.0798 12.6786 11.0148 12.6163 10.9326 12.6163H10.6593C10.5625 12.6369 10.4625 12.6369 10.3657 12.6163H9.89668C9.65629 12.6163 9.42764 12.5714 9.199 12.5099L8.94608 12.4483L8.7378 12.3829L8.26876 12.2267C8.14837 12.1921 8.03668 12.1321 7.94109 12.0506C7.84551 11.9692 7.76823 11.8682 7.71438 11.7544L7.66114 11.6479C7.58753 11.4918 7.43249 11.4058 7.27745 11.4381C7.09814 11.4381 6.92274 11.4381 6.75517 11.3561L6.62911 11.3025C6.38872 11.196 6.21332 10.9862 6.21332 10.7031L6.16869 10.42C6.1405 10.2718 6.04653 10.1369 5.91968 10.0833C5.77292 10.0153 5.63246 9.93428 5.49998 9.84118L5.45065 9.80805C5.28559 9.68087 5.15852 9.51033 5.08341 9.31517L5.06305 9.25366C5.00932 9.08337 5.00229 8.90163 5.04269 8.72765L5.06305 8.66219C5.10377 8.52655 5.1163 8.39091 5.1163 8.24344C5.11472 8.11203 5.06184 7.98652 4.96909 7.89408L4.82188 7.75844C4.73854 7.69063 4.6704 7.60582 4.62195 7.50959C4.5735 7.41335 4.54583 7.30788 4.54077 7.2001C4.51688 6.97573 4.52373 6.74911 4.56113 6.52662V6.46511C4.56093 6.40953 4.53892 6.3563 4.4999 6.317C4.46088 6.27771 4.40802 6.25554 4.35285 6.25533H4.31996C4.18528 6.25533 4.07096 6.33735 4.00597 6.46511C3.95402 6.60438 3.87644 6.73254 3.77732 6.84285L3.7366 6.89648L3.42261 7.21272C3.3169 7.31524 3.25504 7.47532 3.23468 7.63147C3.21514 7.79162 3.17267 7.94807 3.10862 8.09597L3.08826 8.14959C3.03786 8.27488 2.95481 8.38413 2.84787 8.46583C2.79654 8.50529 2.75429 8.55546 2.72402 8.6129C2.69374 8.67034 2.67616 8.7337 2.67247 8.79862L2.65211 9.28362C2.65211 9.4934 2.61923 9.70632 2.5464 9.9161L2.52604 9.99811C2.49933 10.0616 2.49749 10.1329 2.52088 10.1978C2.54426 10.2626 2.59115 10.3161 2.65211 10.3475L3.08826 10.5367L3.12898 10.5572C3.16186 10.5572 3.17361 10.5777 3.18222 10.6109C3.21511 10.6519 3.18222 10.7134 3.14933 10.7134L3.04754 10.767C2.98646 10.7875 2.94183 10.853 2.92147 10.9271L2.90111 11.0296V11.0501L2.79541 11.6416C2.77505 11.7236 2.77505 11.8182 2.77505 11.9129C2.77511 11.9534 2.78712 11.9931 2.80957 12.0268C2.83201 12.0605 2.86387 12.0867 2.90111 12.1021L3.12976 12.2086C3.23547 12.2701 3.36232 12.3442 3.44375 12.4184L3.54946 12.5043C3.58209 12.5472 3.62382 12.5823 3.67161 12.6069L3.71625 12.6479C3.78816 12.712 3.83942 12.7963 3.86345 12.89L3.96525 13.3624C3.96525 13.4893 4.07096 13.5966 4.17353 13.625L4.3411 13.6786C4.3411 13.6786 4.37399 13.6786 4.39435 13.6991L4.60263 13.7645C4.7702 13.8182 4.91663 13.9128 5.04348 14.0358C5.16954 14.1423 5.29248 14.2779 5.39819 14.4262L5.43891 14.4672C5.52425 14.5737 5.64719 14.6273 5.77326 14.5942C5.89932 14.5611 6.03401 14.5532 6.16869 14.5532H6.32764C6.42943 14.5532 6.56803 14.5816 6.68235 14.6557C6.78414 14.7211 6.92274 14.7621 7.04568 14.8158H7.07856C7.1384 14.8399 7.20322 14.8488 7.26729 14.8416C7.33135 14.8345 7.39267 14.8115 7.4458 14.7748C7.55251 14.6901 7.68504 14.6452 7.82087 14.6478L8.31026 14.6762C8.41597 14.6762 8.51855 14.6557 8.57101 14.5737H8.59137L8.77068 14.4049L8.82393 14.3513C8.86526 14.3036 8.91597 14.2651 8.97286 14.2382C9.02974 14.2114 9.09155 14.1967 9.15437 14.1951H9.62731C9.74947 14.1951 9.86771 14.0887 9.91704 13.9854C9.94446 13.9304 9.98407 13.8825 10.0328 13.8455C10.0816 13.8084 10.1381 13.7831 10.1981 13.7716L10.4103 13.7306C10.4918 13.7306 10.5654 13.6565 10.5983 13.5619C10.6232 13.4643 10.6773 13.3767 10.7533 13.3111L10.9209 13.1423C11.0164 13.0535 11.0796 12.9349 11.1002 12.8056L11.0798 12.8135Z" fill="#07CFF6"/>
</svg>
