<svg width="25" height="25" viewBox="0 0 25 25" fill="none" xmlns="http://www.w3.org/2000/svg">
<path d="M11.26 8.42125V10.1425H10V12.2462H11.26V18.5H13.85V12.2462H15.5875C15.5875 12.2462 15.7512 11.2375 15.83 10.1337H13.86V8.69625C13.86 8.48 14.1425 8.19125 14.4225 8.19125H15.8325V6H13.9137C11.1962 6 11.26 8.10625 11.26 8.42125Z" fill="#07CFF6"/>
<path d="M12.5 22.5C15.1522 22.5 17.6957 21.4464 19.5711 19.5711C21.4464 17.6957 22.5 15.1522 22.5 12.5C22.5 9.84784 21.4464 7.3043 19.5711 5.42893C17.6957 3.55357 15.1522 2.5 12.5 2.5C9.84784 2.5 7.3043 3.55357 5.42893 5.42893C3.55357 7.3043 2.5 9.84784 2.5 12.5C2.5 15.1522 3.55357 17.6957 5.42893 19.5711C7.3043 21.4464 9.84784 22.5 12.5 22.5ZM12.5 25C5.59625 25 0 19.4037 0 12.5C0 5.59625 5.59625 0 12.5 0C19.4037 0 25 5.59625 25 12.5C25 19.4037 19.4037 25 12.5 25Z" fill="#07CFF6"/>
</svg>
